<?xml version="1.0" encoding="UTF-8"?>
<svg id="Layer_1" data-name="Layer 1" xmlns="http://www.w3.org/2000/svg" viewBox="0 0 1080 1080">
  <defs>
    <style>
      .cls-1 {
        fill: #fef8e8;
      }
    </style>
  </defs>
  <path class="cls-1" d="M592.91,563.59c-2.86-2.29-6.29-3.29-9.58-4.58-3.15-1.43-6.29-3.15-9.15-5.58-4.43-3.72-6.43-11.44-3.57-17.01,1.29-2.57,3.43-4.72,4.58-7.43,1.29-3.29,1.86-7.29,1.14-10.87-.57-2.86-2.72-5.29-4.72-7.29-19.02-19.16-50.18-9.29-61.34,17.87-7.01,17.01-15.01,43.32,2.72,55.47,5.15,3.58,12.01,4.29,17.73,2.29,4.43-1.43,8.72-3.86,12.58-6.72,2.14-1.57,3.86-3.72,5.72-5.58.57-.57,1.86-1.86,2.43-1.72,1,.14,2.86,3,3.58,3.86,3.15,4.15,7.29,7.58,11.72,9.58,4.29,2,9.01,3.43,13.73,3.15,4-.14,8.44-1.86,11.15-5.43,2.43-3,3.43-7.72,3.72-11.87.14-1.43.14-2.86-.14-4.29-.29-1.57-1.14-3-2.29-3.86ZM547.59,541.14c-9.15,20.45-26.74,27.31-19.16-.43,1.29-4.72,3.43-9.58,6.58-13.01,10.87-11.44,17.16,3.15,12.58,13.44Z"/>
</svg>