<svg xmlns="http://www.w3.org/2000/svg" xmlns:xlink="http://www.w3.org/1999/xlink" width="1080" zoomAndPan="magnify" viewBox="0 0 810 809.999993" height="1080" preserveAspectRatio="xMidYMid meet" version="1.0"><defs><clipPath id="07daf2c63a"><path d="M 11 206 L 765 206 L 765 641 L 11 641 Z M 11 206 " clip-rule="nonzero"/></clipPath><clipPath id="667f402402"><path d="M 0 364.089844 L 724.074219 171.496094 L 809.863281 494.03125 L 85.789062 686.625 Z M 0 364.089844 " clip-rule="nonzero"/></clipPath><clipPath id="253c14fdf9"><path d="M 0 364.089844 L 724.074219 171.496094 L 809.863281 494.03125 L 85.789062 686.625 Z M 0 364.089844 " clip-rule="nonzero"/></clipPath><clipPath id="59a6fb133b"><path d="M 74 371 L 111 371 L 111 397 L 74 397 Z M 74 371 " clip-rule="nonzero"/></clipPath><clipPath id="4acc7ed3cd"><path d="M 0 364.089844 L 724.074219 171.496094 L 809.863281 494.03125 L 85.789062 686.625 Z M 0 364.089844 " clip-rule="nonzero"/></clipPath><clipPath id="dbdca8df78"><path d="M 0 364.089844 L 724.074219 171.496094 L 809.863281 494.03125 L 85.789062 686.625 Z M 0 364.089844 " clip-rule="nonzero"/></clipPath><clipPath id="092320aa28"><path d="M 477 351 L 562 351 L 562 389 L 477 389 Z M 477 351 " clip-rule="nonzero"/></clipPath><clipPath id="10a048c464"><path d="M 0 364.089844 L 724.074219 171.496094 L 809.863281 494.03125 L 85.789062 686.625 Z M 0 364.089844 " clip-rule="nonzero"/></clipPath><clipPath id="bdb8f7e376"><path d="M 0 364.089844 L 724.074219 171.496094 L 809.863281 494.03125 L 85.789062 686.625 Z M 0 364.089844 " clip-rule="nonzero"/></clipPath><clipPath id="55e34a452c"><path d="M 678 242 L 718 242 L 718 304 L 678 304 Z M 678 242 " clip-rule="nonzero"/></clipPath><clipPath id="77bfaf63a2"><path d="M 0 364.089844 L 724.074219 171.496094 L 809.863281 494.03125 L 85.789062 686.625 Z M 0 364.089844 " clip-rule="nonzero"/></clipPath><clipPath id="51944f3dd6"><path d="M 0 364.089844 L 724.074219 171.496094 L 809.863281 494.03125 L 85.789062 686.625 Z M 0 364.089844 " clip-rule="nonzero"/></clipPath><clipPath id="1c095b8d8a"><path d="M 699 451 L 728 451 L 728 484 L 699 484 Z M 699 451 " clip-rule="nonzero"/></clipPath><clipPath id="4ed06d0202"><path d="M 0 364.089844 L 724.074219 171.496094 L 809.863281 494.03125 L 85.789062 686.625 Z M 0 364.089844 " clip-rule="nonzero"/></clipPath><clipPath id="e7050b9ea1"><path d="M 0 364.089844 L 724.074219 171.496094 L 809.863281 494.03125 L 85.789062 686.625 Z M 0 364.089844 " clip-rule="nonzero"/></clipPath><clipPath id="9076d4b712"><path d="M 110 539 L 131 539 L 131 577 L 110 577 Z M 110 539 " clip-rule="nonzero"/></clipPath><clipPath id="5078263012"><path d="M 0 364.089844 L 724.074219 171.496094 L 809.863281 494.03125 L 85.789062 686.625 Z M 0 364.089844 " clip-rule="nonzero"/></clipPath><clipPath id="8379524157"><path d="M 0 364.089844 L 724.074219 171.496094 L 809.863281 494.03125 L 85.789062 686.625 Z M 0 364.089844 " clip-rule="nonzero"/></clipPath></defs><g clip-path="url(#07daf2c63a)"><g clip-path="url(#667f402402)"><g clip-path="url(#253c14fdf9)"><path fill="#fef8e8" d="M 174.011719 404.09375 C 166.085938 382.21875 147.734375 362.660156 127.804688 351.050781 C 116.878906 344.683594 105.488281 342.046875 92.855469 342.371094 C 77.222656 342.765625 62.09375 346.890625 47.785156 353.011719 C 34.734375 358.597656 22.152344 365.101562 15.804688 378.511719 C 10.011719 390.75 11.289062 403.28125 14.523438 416.042969 C 20.792969 440.703125 38.824219 460.761719 59.351562 475.03125 C 83.03125 491.484375 112.753906 500.402344 141.449219 494.75 C 148.691406 493.320312 147.28125 480.722656 139.796875 481.664062 C 113.90625 484.910156 94.933594 506.476562 89.433594 531.292969 C 86.601562 544.0625 86.796875 558.390625 89.792969 571.117188 C 92.785156 583.84375 99.839844 594.988281 107.296875 605.5 C 115.003906 616.359375 125.089844 624.957031 136.996094 630.9375 C 148.898438 636.921875 161.535156 641.414062 174.597656 640.867188 C 199.496094 639.820312 222.617188 624.660156 238.027344 605.796875 C 245.21875 596.996094 250.964844 587.308594 254.425781 576.449219 C 257.890625 565.589844 258.847656 553.464844 259.355469 541.777344 C 259.597656 536.289062 259.859375 529.789062 264.378906 525.945312 C 268.699219 522.257812 274.878906 521.152344 280.234375 519.820312 C 289.820312 517.4375 299.421875 515.097656 309.027344 512.796875 C 355.917969 501.527344 402.933594 490.777344 449.921875 479.933594 C 495.234375 469.480469 540.566406 459.09375 585.738281 448.050781 C 590.25 446.953125 594.757812 445.835938 599.265625 444.714844 C 596.546875 443.140625 593.839844 441.570312 591.121094 439.992188 C 598.753906 469.03125 607.628906 503.785156 636.332031 519.085938 C 657.597656 530.421875 685.046875 526.882812 707.425781 521.039062 C 719.597656 517.855469 731.839844 513.324219 742.484375 506.535156 C 751.292969 500.910156 759.535156 493.410156 762.949219 483.253906 C 766.367188 473.066406 764.851562 461 763.070312 450.664062 C 760.691406 436.890625 756.085938 423.292969 749.464844 410.976562 C 741.800781 396.75 730.792969 384.191406 715.75 377.671875 C 698.628906 370.253906 679.691406 368.921875 662.421875 362.03125 C 662.402344 366.308594 662.386719 370.597656 662.359375 374.878906 C 700.34375 363.910156 751.910156 344.679688 754.035156 297.925781 C 754.664062 284.105469 750.460938 270.519531 744.679688 258.128906 C 739.019531 245.972656 730.785156 235.265625 720.242188 226.9375 C 696.722656 208.367188 665.738281 202.238281 636.867188 210.421875 C 618.667969 215.574219 601.953125 225.777344 588.015625 238.457031 C 577.578125 247.953125 572.757812 261.460938 570.183594 274.996094 C 568.996094 281.21875 568.226562 287.515625 567.054688 293.75 C 566.050781 299.128906 564.917969 303.628906 562.652344 307.386719 C 562.460938 307.699219 562.242188 308.027344 562.015625 308.308594 C 562.957031 307.085938 561.800781 308.472656 561.632812 308.625 C 561.230469 308.984375 560.859375 309.375 560.4375 309.714844 C 561.730469 308.667969 560.214844 309.804688 559.996094 309.933594 C 557.429688 311.402344 554.847656 312.789062 552.148438 314.011719 C 545.8125 316.894531 539.242188 319.269531 532.679688 321.589844 C 505.453125 331.199219 477.710938 339.496094 450.125 347.992188 C 416.363281 358.386719 382.511719 368.488281 348.550781 378.21875 C 317.480469 387.121094 286.320312 395.769531 254.964844 403.585938 C 242.648438 406.65625 230.34375 409.828125 217.992188 412.730469 C 211.894531 414.160156 206.058594 415.347656 200.058594 415.65625 C 194.5625 415.9375 188.832031 415.539062 184.570312 413.746094 C 179.234375 411.492188 175.988281 407.777344 173.339844 402.441406 C 169.539062 394.773438 158.050781 401.503906 161.851562 409.160156 C 175.214844 436.125 207.382812 429.339844 230.941406 423.203125 C 258.898438 415.925781 286.964844 409.21875 314.820312 401.542969 C 379.171875 383.789062 443.144531 364.550781 506.707031 344.175781 C 518.976562 340.242188 531.265625 336.347656 543.339844 331.832031 C 554.074219 327.820312 568.394531 323.851562 574.628906 313.328125 C 580.414062 303.550781 580.757812 291.109375 582.722656 280.195312 C 585.121094 266.871094 589.042969 255.046875 599.570312 246.003906 C 623.703125 225.261719 655.890625 213.851562 687.128906 223.894531 C 712.011719 231.894531 729.726562 251.277344 737.492188 275.839844 C 740.875 286.539062 742 297.394531 739.15625 307.636719 C 736.621094 316.753906 731.5625 324.039062 724.371094 330.785156 C 717.46875 337.265625 709.050781 342.46875 699.800781 347.046875 C 690.554688 351.621094 682.175781 354.746094 671.859375 358.078125 C 667.582031 359.460938 663.277344 360.753906 658.957031 362 C 652.167969 363.960938 653.015625 372.5 658.898438 374.851562 C 673.296875 380.597656 688.882812 382.328125 703.566406 387.175781 C 715.734375 391.191406 725.359375 398.304688 732.628906 408.875 C 739.785156 419.273438 744.65625 431.050781 747.859375 443.226562 C 750.625 453.738281 752.304688 464.007812 751.222656 474.910156 C 751.195312 475.15625 751.050781 476.195312 751.234375 474.960938 C 751.152344 475.511719 751.054688 476.066406 750.945312 476.609375 C 750.789062 477.378906 750.609375 478.144531 750.378906 478.894531 C 750.246094 479.34375 750.097656 479.789062 749.9375 480.230469 C 749.351562 481.9375 750.304688 479.5 749.835938 480.503906 C 749.367188 481.507812 748.878906 482.414062 748.320312 483.328125 C 747.085938 485.34375 747.003906 485.417969 745.203125 487.34375 C 743.519531 489.140625 741.683594 490.816406 739.738281 492.316406 C 740.492188 491.730469 739.285156 492.628906 739.117188 492.757812 C 738.628906 493.109375 738.132812 493.453125 737.632812 493.800781 C 736.609375 494.503906 735.570312 495.171875 734.507812 495.820312 C 732.070312 497.3125 729.550781 498.671875 726.980469 499.921875 C 722.179688 502.265625 717.601562 504.035156 712.351562 505.730469 C 701.152344 509.351562 689.425781 511.773438 677.917969 512.589844 C 672.722656 512.960938 667.496094 513.039062 662.296875 512.683594 C 657.777344 512.367188 654.371094 511.917969 649.601562 510.40625 C 619.390625 500.796875 611.035156 463.273438 604.015625 436.5625 C 603.089844 433.046875 599.363281 430.972656 595.871094 431.839844 C 554.007812 442.277344 511.957031 451.945312 469.925781 461.664062 C 423.394531 472.414062 376.84375 483.058594 330.363281 494.035156 C 311.09375 498.585938 291.710938 502.914062 272.585938 508.03125 C 266.230469 509.730469 259.914062 512.074219 254.96875 516.554688 C 250.023438 521.035156 247.800781 526.960938 246.859375 533.171875 C 245.132812 544.640625 245.910156 556.179688 243.132812 567.554688 C 238.179688 587.820312 223.929688 605.386719 206.441406 616.441406 C 196.808594 622.539062 185.726562 627.195312 174.195312 627.570312 C 162.414062 627.953125 150.441406 623.277344 140.28125 617.605469 C 129.351562 611.503906 121.523438 603.042969 114.640625 592.703125 C 108.265625 583.136719 103.023438 573.191406 101.566406 561.640625 C 98.683594 538.839844 104.738281 512.71875 125.675781 500.070312 C 129.933594 497.496094 134.75 495.585938 139.71875 494.960938 C 139.171875 490.601562 138.617188 486.238281 138.070312 481.878906 C 116.542969 486.117188 94.125 480.136719 75.375 469.390625 C 65.511719 463.742188 56.542969 456.746094 48.65625 448.554688 C 41.6875 441.3125 34.738281 432.765625 30.835938 423.414062 C 28.699219 418.296875 27.328125 412.761719 26.222656 407.339844 C 25.296875 402.765625 24.441406 397.90625 25.019531 393.230469 C 25.652344 388.136719 27.910156 383.070312 31.03125 379.011719 C 34.722656 374.222656 39.734375 371.640625 45.027344 368.945312 C 57.078125 362.8125 70.125 358.15625 83.574219 356.363281 C 94.296875 354.9375 105.363281 354.914062 115.238281 359.449219 C 125.835938 364.324219 135.058594 371.894531 143.03125 380.316406 C 150.421875 388.117188 157.613281 397.667969 161.179688 407.5 C 162.40625 410.882812 165.628906 413.203125 169.324219 412.222656 C 172.566406 411.359375 175.28125 407.480469 174.046875 404.078125 Z M 174.011719 404.09375 " fill-opacity="1" fill-rule="nonzero"/></g></g></g><g clip-path="url(#59a6fb133b)"><g clip-path="url(#4acc7ed3cd)"><g clip-path="url(#dbdca8df78)"><path fill="#fef8e8" d="M 81.144531 385.191406 C 82.507812 385.1875 83.859375 385.28125 85.210938 385.472656 L 83.5 385.230469 C 85.925781 385.597656 88.28125 386.265625 90.546875 387.210938 L 88.976562 386.546875 C 91.234375 387.519531 93.347656 388.757812 95.296875 390.238281 L 93.941406 389.203125 C 95.808594 390.652344 97.488281 392.304688 98.941406 394.164062 L 97.878906 392.800781 C 98.101562 393.085938 98.316406 393.378906 98.527344 393.671875 C 99.570312 395.117188 100.734375 396.238281 102.503906 396.726562 C 104.097656 397.167969 106.222656 396.964844 107.636719 396.058594 C 109.050781 395.152344 110.300781 393.78125 110.691406 392.082031 C 111.082031 390.382812 111.050781 388.386719 110.023438 386.949219 C 106.71875 382.363281 102.550781 378.476562 97.488281 375.886719 C 92.460938 373.324219 86.914062 371.851562 81.253906 371.859375 C 77.777344 371.867188 74.40625 374.839844 74.535156 378.460938 C 74.664062 382.082031 77.402344 385.183594 81.132812 385.179688 Z M 81.144531 385.191406 " fill-opacity="1" fill-rule="nonzero"/></g></g></g><g clip-path="url(#092320aa28)"><g clip-path="url(#10a048c464)"><g clip-path="url(#bdb8f7e376)"><path fill="#fef8e8" d="M 552.925781 351.816406 C 541.5 356.011719 530.105469 360.300781 518.628906 364.371094 C 511.496094 366.90625 504.304688 369.253906 497.015625 371.316406 C 492.101562 372.699219 487.167969 373.996094 482.226562 375.265625 C 478.855469 376.132812 476.4375 379.992188 477.503906 383.410156 C 478.574219 386.824219 482.035156 389.0625 485.648438 388.132812 C 493.738281 386.046875 501.820312 383.914062 509.785156 381.390625 C 518.023438 378.777344 526.136719 375.800781 534.246094 372.816406 C 541.617188 370.109375 548.976562 367.386719 556.339844 364.683594 C 558.039062 364.066406 559.449219 363.207031 560.390625 361.59375 C 561.210938 360.179688 561.558594 358.125 561.0625 356.539062 C 560.566406 354.957031 559.539062 353.316406 557.96875 352.492188 C 556.492188 351.710938 554.558594 351.214844 552.917969 351.820312 Z M 552.925781 351.816406 " fill-opacity="1" fill-rule="nonzero"/></g></g></g><g clip-path="url(#55e34a452c)"><g clip-path="url(#77bfaf63a2)"><g clip-path="url(#51944f3dd6)"><path fill="#fef8e8" d="M 682.207031 254.882812 C 682.714844 255.238281 683.21875 255.605469 683.710938 255.980469 L 682.355469 254.945312 C 685.386719 257.277344 688.054688 260.011719 690.402344 263.023438 L 689.34375 261.660156 C 692.703125 266.023438 695.335938 270.859375 697.464844 275.925781 L 696.78125 274.277344 C 700.042969 282.128906 702.097656 290.394531 704.117188 298.628906 C 704.949219 302.011719 708.875 304.414062 712.261719 303.351562 C 715.648438 302.289062 717.871094 298.832031 716.984375 295.207031 C 715.101562 287.546875 713.207031 279.859375 710.320312 272.515625 C 707.429688 265.167969 703.660156 258.074219 698.414062 251.898438 C 695.636719 248.621094 692.402344 245.828125 688.875 243.371094 C 687.542969 242.445312 685.339844 242.296875 683.824219 242.699219 C 682.308594 243.105469 680.546875 244.324219 679.773438 245.792969 C 679 247.261719 678.566406 249.148438 679.101562 250.84375 C 679.636719 252.542969 680.679688 253.835938 682.195312 254.894531 Z M 682.207031 254.882812 " fill-opacity="1" fill-rule="nonzero"/></g></g></g><g clip-path="url(#1c095b8d8a)"><g clip-path="url(#4ed06d0202)"><g clip-path="url(#e7050b9ea1)"><path fill="#fef8e8" d="M 714.796875 456.824219 C 714.203125 458.972656 713.601562 461.117188 712.75 463.191406 L 713.414062 461.621094 C 712.78125 463.105469 712.027344 464.507812 711.070312 465.804688 L 712.105469 464.449219 C 711.226562 465.589844 710.210938 466.570312 709.082031 467.460938 L 710.449219 466.402344 C 707.976562 468.292969 705.164062 469.613281 702.351562 470.898438 C 700.921875 471.554688 699.695312 473.421875 699.292969 474.875 C 698.851562 476.472656 699.058594 478.59375 699.960938 480.007812 C 700.867188 481.421875 702.242188 482.675781 703.9375 483.066406 C 705.777344 483.488281 707.355469 483.183594 709.070312 482.398438 C 713.414062 480.40625 717.941406 478.144531 721.078125 474.421875 C 724.527344 470.332031 726.238281 465.449219 727.636719 460.359375 C 728.558594 457 726.492188 452.976562 722.992188 452.167969 C 719.488281 451.359375 715.785156 453.226562 714.800781 456.8125 Z M 714.796875 456.824219 " fill-opacity="1" fill-rule="nonzero"/></g></g></g><g clip-path="url(#9076d4b712)"><g clip-path="url(#5078263012)"><g clip-path="url(#8379524157)"><path fill="#fef8e8" d="M 110.949219 545.691406 C 109.910156 555.269531 112.425781 565.417969 117.667969 573.488281 C 118.605469 574.933594 119.957031 576.082031 121.644531 576.542969 C 123.242188 576.984375 125.363281 576.78125 126.777344 575.875 C 129.695312 573.996094 131.195312 569.898438 129.167969 566.765625 C 127.917969 564.839844 126.847656 562.808594 125.964844 560.691406 L 126.648438 562.339844 C 125.410156 559.300781 124.566406 556.121094 124.128906 552.867188 L 124.355469 554.636719 C 123.988281 551.703125 123.953125 548.753906 124.273438 545.808594 C 124.449219 544.191406 123.417969 542.128906 122.304688 541.023438 C 121.191406 539.917969 119.300781 539.035156 117.675781 539.089844 C 115.929688 539.15625 114.105469 539.726562 112.890625 541.0625 C 111.671875 542.394531 111.15625 543.875 110.957031 545.691406 Z M 110.949219 545.691406 " fill-opacity="1" fill-rule="nonzero"/></g></g></g></svg>