<?xml version="1.0" encoding="UTF-8"?>
<svg id="Layer_1" data-name="Layer 1" xmlns="http://www.w3.org/2000/svg" viewBox="0 0 1080 1080">
  <defs>
    <style>
      .cls-1 {
        fill: #fef8e8;
      }
    </style>
  </defs>
  <path class="cls-1" d="M564.26,489.36c-18.3-9.15-39.89-2.86-45.89,17.59-1.57,5.29-3.29,11.87-4.86,18.73-2.14-.43-4.15-.71-5.15-.71-3.72-.43-8.15,1.43-10.29,4.58-1.57,2.43-2.43,5.58-2.43,8.44,0,3.15.71,6.72,2.86,9.15,1.43,1.72,3.86,2.57,6.15,2.86.72,0,2.57.14,4.43.29-2.14,14.01-3.15,27.17-1.72,34.74.29,1.29.57,2.43,1.29,3.57,1.14,1.86,3,3.29,5,4.15,3.43,1.29,7.15,1.86,10.72,1.86,1.86,0,3.72-.43,5.43-1.14,1.72-1,3.15-2.29,4.15-4,1.29-2.14,1.57-4.86,1.72-7.29.71-9.87,1.86-20.59,3.43-31.17,2.43.43,5.15,1,6,1.14,2.86.29,14.01,1,16.87.14,2.57-.86,5-3,6.29-5.43,1-1.86,1.29-4.29,1.14-6.43,0-2.14-.14-4.15-.86-6-1.86-6-12.72-5.58-18.87-5.43-1.14,0-4.58,0-7.29-.14.29-2.29.71-4.29,1-6.43,1.86-11.87,8.86-5.15,18.16-3.57,4.15.86,8.44-1,10.58-4.43,2.72-4.15,3.72-13.44,1.29-17.59-2-3.43-5.72-5.72-9.15-7.43Z"/>
</svg>