<svg xmlns="http://www.w3.org/2000/svg" xmlns:xlink="http://www.w3.org/1999/xlink" width="1080" zoomAndPan="magnify" viewBox="0 0 810 809.999993" height="1080" preserveAspectRatio="xMidYMid meet" version="1.0"><path fill="#545454" d="M 180.914062 413.265625 L 177.179688 400.40625 L 208.648438 369 L 217.34375 369 C 218.140625 366.734375 218.9375 364.347656 219.546875 362.511719 C 239.078125 352.714844 257.8125 342 280.160156 337.59375 L 282.425781 339.613281 C 288.546875 338.328125 294.671875 337.285156 300.058594 336 C 305.445312 334.714844 311.203125 332.753906 316.832031 332.082031 C 322.957031 331.566406 329.078125 331.566406 335.203125 332.082031 C 341.753906 332.511719 348.242188 333.917969 354.792969 334.222656 C 359.9375 334.222656 365.203125 333 370.222656 333.550781 C 375.9375 334.382812 381.511719 335.789062 386.9375 337.777344 C 391.527344 339.304688 397.097656 336.121094 400.957031 340.285156 C 405.792969 345.488281 411.914062 344.144531 417.855469 344.328125 C 422.691406 339.183594 429.179688 335.816406 428.996094 326.386719 C 429.28125 323.191406 430.113281 320.144531 431.492188 317.246094 C 432.871094 314.351562 434.714844 311.785156 437.019531 309.550781 C 452.570312 294.0625 457.957031 272.816406 469.34375 254.9375 C 483.546875 232.777344 495.363281 209.082031 512.203125 188.449219 C 517.320312 181.839844 521.707031 174.78125 525.363281 167.265625 C 533.078125 152.386719 548.691406 142.46875 551.875 124.835938 C 560.445312 122.878906 561.363281 113.570312 567.179688 108.796875 C 572.617188 104.445312 577.1875 99.324219 580.894531 93.429688 C 589.773438 78.671875 606.914062 71.019531 613.527344 54.550781 C 634.28125 39.855469 648.855469 17.328125 673.832031 7.898438 L 677.386719 11.511719 L 680.445312 4.285156 L 694.222656 0.0625 L 704.9375 6.183594 C 701.9375 11.386719 698.8125 16.347656 696.121094 21.246094 C 693.425781 26.144531 690.488281 29.816406 687.671875 34.101562 L 690.609375 37.40625 C 679.222656 48 667.40625 57.980469 656.8125 69.0625 C 646.222656 80.144531 633.121094 89.082031 625.464844 103.222656 C 623.386719 107.082031 617.445312 108.855469 613.222656 111.671875 L 616.710938 115.164062 C 606.242188 128.265625 593.078125 139.039062 584.691406 154.039062 C 579.6875 161.617188 574.21875 168.84375 568.28125 175.714844 C 558.609375 188.753906 553.527344 205.222656 538.589844 215.082031 C 539.8125 217.777344 540.914062 220.039062 542.445312 223.285156 L 531.121094 230.816406 L 534.976562 235.40625 C 519.179688 242.753906 523.28125 265.40625 505.710938 271.347656 L 511.097656 277.46875 L 498.855469 285.429688 L 498.855469 296.328125 L 485.570312 307.039062 L 485.570312 322.652344 L 477.546875 325.347656 L 482.203125 330.488281 L 475.710938 332.449219 C 473.386719 338.570312 470.8125 345.796875 468.546875 351.855469 L 461.628906 353.570312 L 461.628906 363.796875 L 501.609375 396.488281 C 503.691406 399.796875 505.957031 407.695312 510.488281 409.40625 C 518.875 412.59375 518.570312 420.980469 523.832031 425.695312 C 528.082031 430.566406 531.695312 435.871094 534.671875 441.613281 L 532.40625 443.878906 C 537.546875 453.980469 545.078125 463.46875 546.976562 474.0625 C 548.507812 482.816406 553.589844 492.429688 548.628906 502.46875 C 548.140625 503.386719 551.324219 507.671875 548.140625 511.164062 C 547.34375 512.144531 551.386719 516.550781 551.691406 519.550781 C 553.773438 540.855469 547.773438 561.121094 542.691406 581.449219 C 540.058594 592.039062 536.570312 602.449219 533.203125 614.695312 L 528.121094 616.46875 C 526.34375 623.695312 526.832031 633.367188 521.996094 638.144531 C 509.753906 650.878906 506.996094 669.304688 494.261719 681 C 493.464844 681.796875 491.9375 681.855469 490.464844 682.347656 C 490.464844 685.53125 489.792969 688.46875 489.425781 691.898438 L 481.957031 694.960938 L 481.957031 702.671875 C 479.058594 704.21875 476.296875 705.976562 473.671875 707.945312 C 471.046875 709.914062 468.585938 712.074219 466.289062 714.421875 C 463.992188 716.769531 461.890625 719.277344 459.980469 721.945312 C 458.070312 724.617188 456.375 727.417969 454.894531 730.347656 C 453.976562 729.367188 452.996094 728.386719 450.976562 726.429688 C 444.179688 742.164062 429.546875 749.449219 417.058594 759.0625 C 411.859375 763.835938 405.984375 767.53125 399.425781 770.144531 C 392.445312 772.40625 386.8125 778.835938 380.691406 783.367188 L 376.40625 779.878906 C 375.304688 782.632812 374.324219 784.960938 373.160156 787.777344 L 368.691406 784.101562 L 360.363281 791.878906 L 357.179688 789.0625 C 350.445312 791.632812 344.507812 793.777344 338.8125 796.222656 C 335.96875 797.894531 332.9375 799.078125 329.710938 799.769531 C 326.488281 800.460938 323.234375 800.625 319.957031 800.265625 C 314.203125 798.980469 308.628906 810.304688 302.875 800.265625 C 298.589844 805.164062 292.039062 800.265625 287.261719 804.121094 C 282.488281 807.980469 275.9375 796.960938 270.179688 804.121094 L 253.710938 796.59375 L 245.9375 801.550781 L 238.710938 790.898438 L 233.078125 795.855469 C 221.324219 788.203125 209.9375 779.632812 197.507812 773.019531 C 189.960938 768.480469 182.953125 763.21875 176.488281 757.238281 C 170.023438 751.257812 164.234375 744.679688 159.121094 737.511719 C 150.519531 726.792969 143.171875 715.273438 137.082031 702.957031 C 130.988281 690.636719 126.296875 677.808594 122.996094 664.46875 C 119.691406 651.304688 112.464844 637.898438 116.078125 623.449219 C 117.914062 615.917969 105.121094 609.488281 114.914062 601.777344 C 108.792969 596.878906 115.710938 590.511719 112.832031 584.265625 C 110.628906 579.613281 114.792969 572.019531 115.894531 565.898438 C 116.996094 559.777344 113.140625 552.121094 120.058594 547.101562 C 116.996094 541.347656 126.179688 536.082031 120.730469 530.203125 C 125.570312 519.183594 127.464844 507.121094 133.648438 496.53125 C 137.214844 491.132812 139.683594 485.277344 141.058594 478.960938 C 143.019531 468.796875 173.140625 421.960938 180.914062 413.265625 Z M 197.140625 429.429688 C 193.894531 437.203125 192.671875 440.878906 191.019531 444.183594 C 184.464844 456.429688 173.691406 466.285156 169.527344 480.488281 C 162.121094 505.652344 148.464844 528.980469 148.957031 556.222656 C 139.589844 564.980469 146.996094 576.671875 143.875 586.835938 C 141.363281 595.101562 147.425781 605.203125 142.222656 614.632812 C 147.757812 636.875 154.53125 658.730469 162.546875 680.203125 C 167.242188 690.765625 173.039062 700.683594 179.9375 709.960938 C 185.960938 718.980469 193.410156 726.613281 202.28125 732.855469 C 212.203125 739.347656 220.648438 748.347656 229.957031 755.695312 C 232.773438 757.835938 237.488281 757.46875 240.671875 759.367188 C 244.328125 761.925781 247.757812 764.761719 250.957031 767.878906 L 261.914062 762.671875 C 263.628906 766.164062 264.855469 768.796875 266.140625 771.246094 L 270.546875 767.632812 C 275.636719 769.222656 280.800781 770.507812 286.039062 771.488281 C 299.386719 773.265625 311.8125 767.386719 324.855469 765.917969 C 333.066406 764.597656 340.964844 762.230469 348.546875 758.816406 C 354.859375 755.816406 360.980469 752.46875 366.914062 748.777344 C 373.039062 745.40625 379.160156 742.164062 385.28125 738.550781 C 392.328125 735.46875 398.734375 731.386719 404.507812 726.304688 C 409.097656 721.164062 417.304688 718.652344 418.894531 712.898438 C 421.28125 704.203125 429.363281 704.019531 434.019531 699 C 445.585938 686.671875 456.058594 673.472656 465.4375 659.40625 C 474.820312 645.34375 482.976562 630.601562 489.914062 615.183594 C 495.535156 603.722656 500.332031 591.925781 504.304688 579.796875 C 508.449219 568.046875 510.613281 555.945312 510.792969 543.488281 C 518.570312 537 512.875 528.0625 514.894531 520.53125 C 516.914062 513 510.242188 505.347656 514.039062 497.570312 C 507.195312 477.171875 498.417969 457.640625 487.710938 438.980469 C 482.851562 431.929688 477.585938 425.195312 471.914062 418.777344 C 463.589844 422.082031 468.058594 408.183594 459.179688 409.59375 C 455.8125 410.082031 451.039062 402.121094 448.34375 399.367188 L 431.9375 414.488281 L 431.9375 424.652344 C 429.183594 426.328125 426.613281 428.25 424.222656 430.40625 C 419.078125 436.164062 422.570312 445.347656 418.097656 450.429688 C 404.996094 466.039062 403.832031 487.164062 391.160156 503.144531 C 389.875 504.796875 391.160156 508.46875 391.160156 514.777344 C 388.832031 517.164062 385.039062 521.203125 380.753906 525.183594 L 383.507812 527.9375 C 377.875 539.449219 371.996094 551.328125 366.304688 563.019531 L 369.792969 568.46875 L 357.179688 576.671875 C 358.527344 586.59375 359.875 596.265625 361.28125 606.488281 L 354.671875 608.816406 L 353.570312 622.101562 L 344.324219 627.246094 L 327.609375 621.121094 L 320.570312 623.816406 C 292.019531 582.824219 266.101562 540.234375 242.8125 496.039062 L 252.121094 481.039062 L 268.832031 486.183594 C 272.324219 490.960938 276.058594 501.734375 282.671875 503.878906 C 292.894531 507.246094 287.628906 522.246094 299.261719 521.753906 C 302.507812 528.796875 304.039062 537.0625 312.855469 540.121094 L 309.730469 543.246094 L 320.386719 554.203125 C 343.859375 494.0625 371.535156 435.921875 403.40625 379.777344 L 393.730469 368.878906 L 388.957031 373.101562 L 348.425781 360.855469 C 347.691406 361.53125 346.710938 363.121094 345.671875 363.183594 C 327.304688 364.039062 308.9375 364.714844 288.855469 365.511719 L 282.242188 373.960938 L 275.078125 370.347656 C 262.371094 373.714844 250.453125 378.898438 239.324219 385.898438 C 227.753906 392.511719 215.324219 401.019531 213.976562 414.917969 Z M 197.140625 429.429688 " fill-opacity="1" fill-rule="nonzero"/></svg>