<?xml version="1.0" encoding="UTF-8"?>
<svg id="Layer_1" data-name="Layer 1" xmlns="http://www.w3.org/2000/svg" viewBox="0 0 186.2 204.57">
  <defs>
    <style>
      .cls-1 {
        fill: #fff8e9;
      }
    </style>
  </defs>
  <path class="cls-1" d="M145.45,44.12c-.94-4.22-3.28-8.21-6.33-10.79-3.99-3.75-9.85-5.39-15.24-5.16-9.38.23-28.14,16.18-34.47,22.98-1.64,1.88-7.27,8.21-10.79,12.66,0-4.46-1.17-10.08-2.81-12.43-5.16-6.33-19.46-6.33-27.2-3.75-4.22,1.41-8.44,3.99-11.49,7.04-2.35,2.58-3.99,6.1-4.69,9.62-2.11,11.26,3.05,19.93,4.69,31.42,1.17,8.68,3.05,24.62,3.28,33.54.23,5.16-.47,29.55,0,34.71.23,2.35,1.17,4.92,2.81,6.8,10.32,12.66,36.11,8.21,40.81-6.57.94-2.81.94-6.1.94-9.15.24-21.81-14.07-51.83,5.86-68.71,8.44-7.04,13.6-8.21,24.16-11.73,4.93-1.41,19.47-2.11,23.92-5.16,3.05-2.11,5.39-5.63,6.33-9.38,1.41-5.16,1.41-10.79.23-15.95Z"/>
</svg>