<?xml version="1.0" encoding="UTF-8"?>
<svg id="Layer_1" data-name="Layer 1" xmlns="http://www.w3.org/2000/svg" viewBox="0 0 224.36 239.52">
  <defs>
    <style>
      .cls-1 {
        fill: #fff8e9;
      }
    </style>
  </defs>
  <path class="cls-1" d="M187.79,149.81c-4.69-3.75-10.32-5.39-15.71-7.5-5.16-2.35-10.32-5.16-15.01-9.15-7.27-6.1-10.55-18.76-5.86-27.91,2.11-4.22,5.63-7.74,7.5-12.19,2.11-5.39,3.05-11.96,1.88-17.82-.94-4.69-4.46-8.68-7.74-11.96-31.19-31.43-82.32-15.24-100.61,29.31-11.49,27.91-24.62,71.06,4.45,90.99,8.44,5.86,19.7,7.04,29.08,3.75,7.27-2.35,14.3-6.33,20.64-11.02,3.52-2.58,6.33-6.1,9.38-9.15.94-.94,3.05-3.05,3.99-2.81,1.64.24,4.69,4.93,5.86,6.33,5.16,6.8,11.96,12.43,19.23,15.71,7.04,3.28,14.78,5.63,22.51,5.16,6.57-.23,13.84-3.05,18.29-8.91,3.99-4.93,5.63-12.66,6.1-19.47.24-2.35.24-4.69-.23-7.04-.47-2.58-1.88-4.93-3.75-6.33ZM113.45,113c-15.01,33.54-43.85,44.79-31.43-.7,2.11-7.74,5.63-15.71,10.79-21.34,17.82-18.76,28.14,5.16,20.64,22.04Z"/>
</svg>