<?xml version="1.0" encoding="UTF-8"?>
<svg id="Layer_1" data-name="Layer 1" xmlns="http://www.w3.org/2000/svg" viewBox="0 0 296.84 320.21">
  <defs>
    <style>
      .cls-1 {
        fill: #fff8e9;
      }
    </style>
  </defs>
  <path class="cls-1" d="M245.17,134.08c-1.41-8.44-3.28-17.12-7.5-24.39-9.38-16.42-44.09-13.13-42.21,9.38,1.88,21.11,12.66,46.2,0,69.89-6.57,12.66-28.1,5.67-34.91-21.3-1.42-5.3-2.06-10.77-2.47-16.23-.21-2.75-.36-5.51-.52-8.27-.15-2.59-.66-5.35-.51-7.93,0-.07.02-.14.03-.21.03-.11.05-.22.1-.31,5.16-8.66,24.91-18.26,24.63-25.64-.42-11.01-11.25-17.7-24.08-19.99-19.36-3.87-44.64,2.87-45.29,19.81-.28,7.38,19.47,16.98,24.63,25.64.31.52.39,1.15.29,1.74-4.14,26.35-6,26.07-10.67,38.86-5.63,16.18-39.45,18.02-36.64.9.94-5.16,9.61-34.47,9.61-39.63.23-9.85-2.35-19.46-11.73-23.22-23.92-9.61-21,14.8-22.88,34.73-3.28,23.69-5.86,48.78,1.64,71.53,2.35,7.04,5.63,14.07,10.55,19.23,3.99,4.45,9.61,7.74,15.24,8.44,4.93.7,10.08.47,14.31-1.64,9.61-4.69,16.88-15.01,21.34-25.33,2.11-4.46,8.44-21.58,11.96-32.83,3.75,11.73,6.33,23.92,12.43,34.47,5.63,9.85,14.54,19,24.86,21.81,7.97,2.11,16.65,3.05,24.62.7,4.69-1.17,8.91-4.45,12.66-7.74,7.04-6.57,12.43-15.24,16.65-24.16,5.86-12.19,9.85-25.56,12.43-39.16,2.11-12.9,3.28-26.26,1.41-39.16Z"/>
</svg>