<?xml version="1.0" encoding="UTF-8"?>
<svg id="Layer_1" data-name="Layer 1" xmlns="http://www.w3.org/2000/svg" viewBox="0 0 1080 1080">
  <defs>
    <style>
      .cls-1 {
        fill: #fef8e8;
      }
    </style>
  </defs>
  <path class="cls-1" d="M574.35,496.65c-.57-2.57-2-5-3.86-6.58-2.43-2.29-6-3.29-9.29-3.15-5.72.14-17.16,9.87-21.02,14.01-1,1.14-4.43,5-6.58,7.72,0-2.72-.71-6.15-1.72-7.58-3.15-3.86-11.87-3.86-16.58-2.29-2.57.86-5.15,2.43-7.01,4.29-1.43,1.57-2.43,3.72-2.86,5.86-1.29,6.86,1.86,12.15,2.86,19.16.71,5.29,1.86,15.01,2,20.45.14,3.14-.29,18.01,0,21.16.14,1.43.71,3,1.72,4.15,6.29,7.72,22.02,5,24.88-4,.57-1.72.57-3.72.57-5.58.14-13.3-8.58-31.6,3.57-41.89,5.15-4.29,8.29-5,14.73-7.15,3-.86,11.87-1.29,14.58-3.15,1.86-1.29,3.29-3.43,3.86-5.72.86-3.15.86-6.58.14-9.72Z"/>
</svg>