<?xml version="1.0" encoding="UTF-8"?>
<svg id="Layer_1" data-name="Layer 1" xmlns="http://www.w3.org/2000/svg" viewBox="0 0 1080 1080">
  <defs>
    <style>
      .cls-1 {
        fill: #fef8e8;
      }
    </style>
  </defs>
  <path class="cls-1" d="M570.44,513.7c-.43-3.29-1-6.58-1.57-9.72-.57-4.86-1.57-10.01-4.58-14.01-4-5.29-14.3-4.86-20.45-2.29-2.72,1.14-5.29,2.86-6.86,5.29-1.86,3.15-2,7.15-1.43,10.72,2,12.58,8.58,24.31,10.15,37.03-4.15-2-11.29-3.43-14.3-3.57-22.59-.86-33.74,23.73-23.16,42.18,1.72,2.72,3.58,5.29,6.01,7.58,3.86,3.57,8.58,6.29,13.44,8.01,4,1.43,8.29,1.86,12.44,1.86,5.58,0,11.29-.86,16.58-2.57,17.16-5.15,19.44-23.88,19.02-39.32-.57-13.73-3-27.45-5.29-41.18ZM532.7,569.17c-3.43-3-2-9.29,2.29-10.72,5.86-2,12.87,1.29,13.3,7.29.86,8.72-10.87,8.01-15.58,3.43Z"/>
</svg>