<svg xmlns="http://www.w3.org/2000/svg" xmlns:xlink="http://www.w3.org/1999/xlink" width="1080" zoomAndPan="magnify" viewBox="0 0 810 809.999993" height="1080" preserveAspectRatio="xMidYMid meet" version="1.0"><defs><clipPath id="38a0f73d69"><path d="M 65 97 L 783 97 L 783 641 L 65 641 Z M 65 97 " clip-rule="nonzero"/></clipPath><clipPath id="30b099627f"><path d="M 125.472656 81 L 816.359375 363.074219 L 690.773438 670.675781 L -0.113281 388.601562 Z M 125.472656 81 " clip-rule="nonzero"/></clipPath><clipPath id="33f5c66d97"><path d="M 125.472656 81 L 816.359375 363.074219 L 690.773438 670.675781 L -0.113281 388.601562 Z M 125.472656 81 " clip-rule="nonzero"/></clipPath><clipPath id="f58ec6df6e"><path d="M 174 134 L 200 134 L 200 172 L 174 172 Z M 174 134 " clip-rule="nonzero"/></clipPath><clipPath id="66120cfe79"><path d="M 125.472656 81 L 816.359375 363.074219 L 690.773438 670.675781 L -0.113281 388.601562 Z M 125.472656 81 " clip-rule="nonzero"/></clipPath><clipPath id="d6b684b30c"><path d="M 125.472656 81 L 816.359375 363.074219 L 690.773438 670.675781 L -0.113281 388.601562 Z M 125.472656 81 " clip-rule="nonzero"/></clipPath><clipPath id="af6a6e2d57"><path d="M 492 378 L 576 378 L 576 416 L 492 416 Z M 492 378 " clip-rule="nonzero"/></clipPath><clipPath id="e887a67dfb"><path d="M 125.472656 81 L 816.359375 363.074219 L 690.773438 670.675781 L -0.113281 388.601562 Z M 125.472656 81 " clip-rule="nonzero"/></clipPath><clipPath id="c62ed2d16d"><path d="M 125.472656 81 L 816.359375 363.074219 L 690.773438 670.675781 L -0.113281 388.601562 Z M 125.472656 81 " clip-rule="nonzero"/></clipPath><clipPath id="a864dd3663"><path d="M 723 394 L 748 394 L 748 461 L 723 461 Z M 723 394 " clip-rule="nonzero"/></clipPath><clipPath id="12cec3b416"><path d="M 125.472656 81 L 816.359375 363.074219 L 690.773438 670.675781 L -0.113281 388.601562 Z M 125.472656 81 " clip-rule="nonzero"/></clipPath><clipPath id="ea3e6d0855"><path d="M 125.472656 81 L 816.359375 363.074219 L 690.773438 670.675781 L -0.113281 388.601562 Z M 125.472656 81 " clip-rule="nonzero"/></clipPath><clipPath id="785f90bf72"><path d="M 611 582 L 648 582 L 648 603 L 611 603 Z M 611 582 " clip-rule="nonzero"/></clipPath><clipPath id="e662f4cec2"><path d="M 125.472656 81 L 816.359375 363.074219 L 690.773438 670.675781 L -0.113281 388.601562 Z M 125.472656 81 " clip-rule="nonzero"/></clipPath><clipPath id="0fd5c642e6"><path d="M 125.472656 81 L 816.359375 363.074219 L 690.773438 670.675781 L -0.113281 388.601562 Z M 125.472656 81 " clip-rule="nonzero"/></clipPath><clipPath id="a8f6bc3408"><path d="M 93 289 L 117 289 L 117 326 L 93 326 Z M 93 289 " clip-rule="nonzero"/></clipPath><clipPath id="64da9cf3b1"><path d="M 125.472656 81 L 816.359375 363.074219 L 690.773438 670.675781 L -0.113281 388.601562 Z M 125.472656 81 " clip-rule="nonzero"/></clipPath><clipPath id="af77847f8f"><path d="M 125.472656 81 L 816.359375 363.074219 L 690.773438 670.675781 L -0.113281 388.601562 Z M 125.472656 81 " clip-rule="nonzero"/></clipPath></defs><g clip-path="url(#38a0f73d69)"><g clip-path="url(#30b099627f)"><g clip-path="url(#33f5c66d97)"><path fill="#fef8e8" d="M 239.589844 217.246094 C 246.433594 195.121094 243.609375 168.574219 234.761719 147.394531 C 229.910156 135.78125 222.453125 126.84375 212.230469 119.519531 C 199.582031 110.445312 185.09375 104.636719 170.058594 100.902344 C 156.347656 97.5 142.453125 95.105469 129.363281 101.941406 C 117.414062 108.175781 110.90625 118.894531 105.808594 130.964844 C 95.980469 154.304688 98.25 181.054688 105.976562 204.710938 C 114.894531 231.984375 133.136719 256.914062 159.304688 269.652344 C 165.914062 272.867188 172.355469 262.023438 165.855469 258.277344 C 143.351562 245.308594 115.339844 251.035156 96.074219 267.433594 C 86.160156 275.867188 77.710938 287.359375 72.445312 299.261719 C 67.179688 311.160156 66.089844 324.242188 65.695312 337.0625 C 65.292969 350.3125 68.136719 363.191406 73.996094 375.089844 C 79.855469 386.984375 87.1875 398.140625 97.886719 405.546875 C 118.277344 419.667969 145.734375 421.519531 169.292969 415.796875 C 180.289062 413.128906 190.664062 408.886719 199.933594 402.347656 C 209.203125 395.804688 217.242188 386.757812 224.664062 377.785156 C 228.152344 373.570312 232.265625 368.570312 238.160156 368.230469 C 243.800781 367.898438 249.371094 370.730469 254.421875 372.890625 C 263.464844 376.753906 272.488281 380.664062 281.496094 384.605469 C 325.488281 403.8125 369.261719 423.507812 413.070312 443.113281 C 455.320312 462.027344 497.539062 481 540.03125 499.359375 C 544.273438 501.195312 548.519531 503.015625 552.769531 504.832031 C 551.558594 501.949219 550.351562 499.074219 549.140625 496.195312 C 537.761719 523.828125 523.941406 556.746094 537.539062 586.125 C 547.613281 607.894531 571.527344 621.566406 592.800781 630.363281 C 604.375 635.144531 616.8125 638.902344 629.339844 639.902344 C 639.710938 640.726562 650.757812 639.71875 659.5625 633.707031 C 668.394531 627.671875 674.4375 617.1875 679.226562 607.910156 C 685.609375 595.550781 690.121094 581.988281 692.257812 568.238281 C 694.71875 552.34375 693.519531 535.765625 685.492188 521.554688 C 676.355469 505.382812 662.125 492.957031 652.550781 477.117188 C 649.964844 480.503906 647.378906 483.898438 644.789062 487.28125 C 681.523438 501.382812 734.007812 517.078125 763.765625 481.238281 C 772.566406 470.648438 777.386719 457.339844 780.238281 444.03125 C 783.042969 430.980469 782.933594 417.539062 779.566406 404.597656 C 772.046875 375.734375 751.132812 352.261719 723.300781 341.425781 C 705.757812 334.589844 686.363281 332.648438 667.6875 334.347656 C 653.699219 335.617188 641.761719 343.449219 631.589844 352.644531 C 626.910156 356.871094 622.519531 361.40625 617.847656 365.65625 C 613.820312 369.320312 610.21875 372.210938 606.164062 373.835938 C 605.824219 373.96875 605.453125 374.09375 605.109375 374.183594 C 606.585938 373.777344 604.835938 374.183594 604.613281 374.207031 C 604.078125 374.25 603.550781 374.335938 603.007812 374.355469 C 604.664062 374.296875 602.777344 374.292969 602.527344 374.261719 C 599.609375 373.890625 596.726562 373.4375 593.847656 372.789062 C 587.089844 371.269531 580.445312 369.210938 573.84375 367.113281 C 546.460938 358.390625 519.453125 348.320312 492.457031 338.5 C 459.417969 326.484375 426.476562 314.171875 393.675781 301.507812 C 363.667969 289.914062 333.742188 278.070312 304.15625 265.449219 C 292.535156 260.492188 280.863281 255.621094 269.3125 250.507812 C 263.617188 247.984375 258.273438 245.417969 253.324219 242.0625 C 248.792969 238.984375 244.480469 235.226562 242.175781 231.246094 C 239.292969 226.253906 238.945312 221.351562 240.050781 215.53125 C 241.636719 207.160156 228.476562 205.605469 226.894531 213.964844 C 221.3125 243.390625 250.921875 257.320312 273.308594 266.597656 C 299.867188 277.605469 326.175781 289.136719 352.898438 299.765625 C 414.640625 324.3125 476.972656 347.457031 539.664062 369.445312 C 551.765625 373.691406 563.859375 377.976562 576.15625 381.644531 C 587.085938 384.90625 600.839844 390.351562 612.105469 385.742188 C 622.566406 381.457031 630.3125 371.785156 638.421875 364.300781 C 648.328125 355.164062 658.539062 348.132812 672.328125 347.273438 C 703.941406 345.300781 736.34375 355.570312 755.109375 382.296875 C 770.058594 403.589844 772.480469 429.613281 763.898438 453.773438 C 760.15625 464.300781 754.53125 473.59375 746.125 480.015625 C 738.640625 485.730469 730.25 488.476562 720.488281 489.515625 C 711.117188 490.511719 701.3125 489.589844 691.222656 487.667969 C 681.132812 485.746094 672.605469 483.195312 662.417969 479.648438 C 658.191406 478.179688 653.996094 476.617188 649.820312 475.015625 C 643.253906 472.492188 638.796875 479.78125 642.054688 485.179688 C 650.035156 498.386719 661.367188 509.121094 670.113281 521.78125 C 677.363281 532.28125 680.730469 543.703125 680.15625 556.460938 C 679.59375 569.015625 676.390625 581.285156 671.617188 592.871094 C 667.503906 602.878906 662.671875 612.042969 655.265625 620.042969 C 655.09375 620.222656 654.355469 620.960938 655.246094 620.089844 C 654.847656 620.476562 654.4375 620.859375 654.023438 621.226562 C 653.441406 621.742188 652.835938 622.246094 652.203125 622.703125 C 651.828125 622.980469 651.441406 623.242188 651.050781 623.496094 C 649.558594 624.496094 651.78125 623.132812 650.804688 623.652344 C 649.828125 624.167969 648.898438 624.59375 647.90625 624.984375 C 645.714844 625.839844 645.609375 625.851562 643.019531 626.300781 C 640.605469 626.714844 638.140625 626.945312 635.695312 626.964844 C 636.648438 626.953125 635.148438 626.941406 634.941406 626.941406 C 634.34375 626.929688 633.738281 626.90625 633.136719 626.882812 C 631.902344 626.824219 630.675781 626.730469 629.441406 626.609375 C 626.609375 626.328125 623.792969 625.894531 621.003906 625.34375 C 615.785156 624.320312 611.085938 622.976562 605.902344 621.167969 C 594.839844 617.320312 584.074219 612.199219 574.449219 605.9375 C 570.101562 603.113281 565.90625 600.039062 561.992188 596.632812 C 558.59375 593.671875 556.160156 591.265625 553.28125 587.203125 C 535.074219 561.433594 550.96875 526.632812 561.4375 501.214844 C 562.808594 497.867188 561.101562 493.984375 557.804688 492.574219 C 518.308594 475.722656 479.121094 458.148438 439.921875 440.625 C 396.527344 421.21875 353.1875 401.71875 309.699219 382.523438 C 291.671875 374.5625 273.6875 366.359375 255.429688 358.9375 C 249.367188 356.472656 242.941406 354.542969 236.328125 355.128906 C 229.710938 355.714844 224.386719 359.082031 219.914062 363.449219 C 211.652344 371.515625 205.34375 381.144531 196.3125 388.503906 C 180.210938 401.617188 158.347656 407.003906 137.828125 405.28125 C 126.519531 404.335938 114.929688 401.378906 105.546875 394.753906 C 95.964844 387.984375 89.269531 377.082031 84.613281 366.480469 C 79.597656 355.070312 78.464844 343.652344 79.210938 331.316406 C 79.894531 319.894531 81.703125 308.851562 87.484375 298.808594 C 98.882812 278.976562 119.375 261.875 143.59375 264.410156 C 148.515625 264.921875 153.488281 266.300781 157.804688 268.785156 C 159.988281 264.996094 162.167969 261.199219 164.351562 257.410156 C 144.71875 247.847656 130.515625 229.636719 122.082031 209.851562 C 117.648438 199.445312 114.726562 188.507812 113.382812 177.269531 C 112.199219 167.335938 111.820312 156.378906 114.332031 146.609375 C 115.710938 141.265625 117.945312 136.046875 120.324219 131.082031 C 122.335938 126.894531 124.574219 122.523438 127.839844 119.160156 C 131.398438 115.496094 136.238281 112.828125 141.148438 111.484375 C 146.957031 109.898438 152.488281 110.855469 158.304688 111.894531 C 171.554688 114.265625 184.703125 118.398438 196.460938 125.054688 C 205.828125 130.359375 214.628906 136.984375 219.738281 146.515625 C 225.226562 156.746094 228.003906 168.292969 229.273438 179.765625 C 230.457031 190.398438 230.429688 202.296875 227.355469 212.242188 C 226.300781 215.664062 227.464844 219.445312 230.988281 220.882812 C 234.078125 222.144531 238.5625 220.695312 239.625 217.25 Z M 239.589844 217.246094 " fill-opacity="1" fill-rule="nonzero"/></g></g></g><g clip-path="url(#f58ec6df6e)"><g clip-path="url(#66120cfe79)"><g clip-path="url(#d6b684b30c)"><path fill="#fef8e8" d="M 177.222656 146.476562 C 178.304688 147.292969 179.320312 148.179688 180.28125 149.144531 L 179.066406 147.921875 C 180.773438 149.671875 182.238281 151.617188 183.472656 153.726562 L 182.621094 152.257812 C 183.832031 154.382812 184.769531 156.636719 185.425781 158.980469 L 184.972656 157.347656 C 185.578125 159.617188 185.921875 161.9375 185.957031 164.285156 L 185.9375 162.566406 C 185.941406 162.925781 185.9375 163.289062 185.925781 163.644531 C 185.886719 165.417969 186.136719 167.011719 187.25 168.460938 C 188.25 169.769531 190.058594 170.878906 191.722656 171.011719 C 193.390625 171.140625 195.207031 170.800781 196.539062 169.6875 C 197.867188 168.574219 199.042969 166.96875 199.089844 165.214844 C 199.21875 159.589844 198.246094 154.003906 195.78125 148.90625 C 193.332031 143.851562 189.8125 139.351562 185.3125 135.960938 C 182.546875 133.878906 178.089844 134.214844 176.015625 137.164062 C 173.941406 140.117188 174.257812 144.222656 177.21875 146.460938 Z M 177.222656 146.476562 " fill-opacity="1" fill-rule="nonzero"/></g></g></g><g clip-path="url(#af6a6e2d57)"><g clip-path="url(#e887a67dfb)"><g clip-path="url(#c62ed2d16d)"><path fill="#fef8e8" d="M 571.765625 403.265625 C 560.175781 399.734375 548.554688 396.296875 537 392.636719 C 529.816406 390.363281 522.699219 387.914062 515.675781 385.171875 C 510.945312 383.320312 506.25 381.386719 501.566406 379.425781 C 498.371094 378.089844 494.128906 379.703125 492.925781 383.058594 C 491.722656 386.410156 493.128906 390.265625 496.554688 391.695312 C 504.226562 394.898438 511.925781 398.058594 519.761719 400.835938 C 527.871094 403.707031 536.097656 406.214844 544.328125 408.714844 C 551.804688 410.996094 559.28125 413.253906 566.75 415.53125 C 568.46875 416.054688 570.105469 416.222656 571.820312 415.507812 C 573.320312 414.878906 574.832031 413.457031 575.386719 411.898438 C 575.945312 410.34375 576.113281 408.421875 575.367188 406.828125 C 574.660156 405.320312 573.421875 403.765625 571.757812 403.261719 Z M 571.765625 403.265625 " fill-opacity="1" fill-rule="nonzero"/></g></g></g><g clip-path="url(#a864dd3663)"><g clip-path="url(#12cec3b416)"><g clip-path="url(#ea3e6d0855)"><path fill="#fef8e8" d="M 732.59375 403.945312 C 732.785156 404.53125 732.964844 405.125 733.128906 405.714844 L 732.675781 404.082031 C 733.679688 407.757812 734.15625 411.523438 734.210938 415.328125 L 734.191406 413.609375 C 734.238281 419.089844 733.421875 424.511719 732.070312 429.8125 L 732.519531 428.089844 C 730.394531 436.28125 727.058594 444.074219 723.71875 451.828125 C 722.347656 455.007812 724.023438 459.273438 727.351562 460.464844 C 730.675781 461.65625 734.515625 460.246094 735.988281 456.835938 C 739.089844 449.625 742.207031 442.386719 744.324219 434.820312 C 746.441406 427.253906 747.707031 419.359375 747.253906 411.308594 C 747.015625 407.039062 746.125 402.878906 744.800781 398.8125 C 744.296875 397.277344 742.640625 395.835938 741.195312 395.246094 C 739.746094 394.652344 737.617188 394.566406 736.121094 395.265625 C 734.625 395.96875 733.148438 397.207031 732.554688 398.875 C 731.960938 400.542969 732.011719 402.195312 732.578125 403.945312 Z M 732.59375 403.945312 " fill-opacity="1" fill-rule="nonzero"/></g></g></g><g clip-path="url(#785f90bf72)"><g clip-path="url(#e662f4cec2)"><g clip-path="url(#0fd5c642e6)"><path fill="#fef8e8" d="M 637.210938 583.816406 C 635.449219 585.164062 633.683594 586.507812 631.761719 587.640625 L 633.230469 586.792969 C 631.839844 587.59375 630.398438 588.253906 628.859375 588.707031 L 630.492188 588.253906 C 629.113281 588.628906 627.714844 588.796875 626.285156 588.828125 L 628.007812 588.804688 C 624.910156 588.824219 621.882812 588.183594 618.878906 587.515625 C 617.351562 587.179688 615.257812 587.921875 614.0625 588.835938 C 612.753906 589.839844 611.644531 591.644531 611.511719 593.3125 C 611.382812 594.976562 611.722656 596.796875 612.835938 598.125 C 614.039062 599.566406 615.476562 600.273438 617.308594 600.679688 C 621.953125 601.707031 626.902344 602.628906 631.628906 601.558594 C 636.820312 600.382812 641.113281 597.53125 645.28125 594.328125 C 648.027344 592.21875 648.804688 587.785156 646.507812 585.039062 C 644.214844 582.296875 640.15625 581.554688 637.21875 583.8125 Z M 637.210938 583.816406 " fill-opacity="1" fill-rule="nonzero"/></g></g></g><g clip-path="url(#a8f6bc3408)"><g clip-path="url(#64da9cf3b1)"><g clip-path="url(#af77847f8f)"><path fill="#fef8e8" d="M 104.507812 291.78125 C 97.933594 298.757812 93.835938 308.328125 93.152344 317.878906 C 93.027344 319.589844 93.414062 321.3125 94.472656 322.695312 C 95.476562 324.003906 97.28125 325.113281 98.949219 325.246094 C 102.390625 325.503906 106.042969 323.152344 106.3125 319.449219 C 106.480469 317.167969 106.851562 314.914062 107.417969 312.703125 L 106.972656 314.421875 C 107.816406 311.265625 109.054688 308.234375 110.660156 305.390625 L 109.777344 306.929688 C 111.25 304.378906 112.992188 302.019531 115.015625 299.875 C 116.125 298.695312 116.542969 296.441406 116.324219 294.894531 C 116.101562 293.347656 115.132812 291.507812 113.808594 290.578125 C 112.386719 289.582031 110.59375 288.941406 108.828125 289.269531 C 107.0625 289.597656 105.761719 290.460938 104.515625 291.78125 Z M 104.507812 291.78125 " fill-opacity="1" fill-rule="nonzero"/></g></g></g></svg>