<svg xmlns="http://www.w3.org/2000/svg" xmlns:xlink="http://www.w3.org/1999/xlink" width="1080" zoomAndPan="magnify" viewBox="0 0 810 809.999993" height="1080" preserveAspectRatio="xMidYMid meet" version="1.0"><path fill="#fef8e8" d="M 294.28125 699.609375 C 293.636719 702.351562 293.566406 704.660156 294.074219 706.527344 C 290.828125 694.523438 264.371094 653.511719 214.703125 583.492188 C 214.539062 583.261719 214.378906 583.027344 214.226562 582.792969 C 199.578125 560.382812 163.871094 518.972656 107.105469 458.5625 C 106.484375 457.902344 105.902344 457.207031 105.367188 456.476562 C 103.90625 454.484375 102.65625 452.546875 101.617188 450.667969 C 94.851562 438.4375 95.410156 427.632812 103.292969 418.253906 C 106.074219 414.949219 109.75 412.519531 113.882812 411.261719 C 114.359375 411.117188 114.839844 410.980469 115.328125 410.847656 C 134.050781 405.84375 169.496094 412.789062 221.660156 431.679688 L 220.976562 431.445312 C 253.066406 441.90625 302.078125 467.730469 368.007812 508.910156 L 365.109375 507.382812 C 366.566406 508.019531 367.621094 508.394531 368.261719 508.503906 C 365.171875 507.972656 361.996094 509.160156 358.738281 512.078125 C 359.800781 511.125 360.949219 510.28125 362.171875 509.550781 C 358.902344 511.503906 356.804688 513.726562 355.875 516.214844 C 357.773438 511.125 358.539062 497.472656 358.175781 475.261719 C 358.171875 475.085938 358.171875 474.914062 358.171875 474.738281 C 358.664062 405.042969 356.871094 321.121094 352.792969 222.976562 C 352.777344 222.601562 352.773438 222.226562 352.777344 221.851562 C 352.851562 213.476562 353.675781 206.589844 355.253906 201.183594 C 359.605469 186.265625 368.683594 178.871094 382.496094 178.996094 C 384.183594 179.007812 385.867188 179.179688 387.550781 179.511719 C 388.210938 179.640625 388.863281 179.796875 389.511719 179.988281 C 395.535156 181.742188 400.800781 185.507812 405.316406 191.285156 C 410.296875 197.664062 415.269531 208.097656 420.230469 222.59375 C 420.269531 222.707031 420.308594 222.824219 420.347656 222.9375 C 460.277344 346.125 486.511719 419.5 499.046875 443.070312 C 499.304688 443.554688 499.542969 444.046875 499.765625 444.546875 C 508.875 465.210938 516.019531 477.144531 521.199219 480.34375 C 518.910156 478.929688 516.15625 478.933594 512.933594 480.351562 C 512.597656 480.5 512.285156 480.660156 512 480.835938 C 513.007812 480.226562 514.058594 479.699219 515.148438 479.253906 C 523.296875 475.941406 533.425781 465.464844 545.53125 447.828125 L 544.769531 449.011719 C 619.863281 323.292969 664.304688 253.082031 678.085938 238.382812 L 676.066406 240.875 C 688.304688 223.347656 699.050781 211.859375 708.300781 206.410156 C 719.019531 200.101562 729.234375 199.515625 738.953125 204.660156 L 735.71875 203.261719 C 745.914062 206.742188 751.574219 214.664062 752.699219 227.023438 C 753.164062 232.09375 752.816406 239.007812 751.660156 247.769531 C 751.558594 248.550781 751.414062 249.324219 751.226562 250.089844 C 729.164062 341.460938 710.234375 454.234375 694.4375 588.417969 C 694.375 588.945312 694.292969 589.46875 694.195312 589.992188 C 687.183594 626.738281 677.472656 653.527344 665.058594 670.363281 L 666.171875 668.703125 C 654.816406 687.386719 638.117188 700.769531 616.066406 708.84375 L 630.691406 688.96875 C 630.21875 698.59375 625.015625 705.542969 615.078125 709.816406 C 602.777344 715.105469 548.261719 728.007812 451.53125 748.523438 L 453.863281 747.894531 C 428.398438 756.257812 407.84375 766.507812 392.199219 778.644531 C 382.453125 786.203125 368.425781 784.429688 360.863281 774.683594 C 353.304688 764.9375 355.074219 750.910156 364.820312 743.351562 C 384.535156 728.058594 409.570312 715.425781 439.929688 705.457031 C 440.695312 705.207031 441.472656 704.996094 442.261719 704.828125 C 536.117188 684.921875 587.839844 672.90625 597.433594 668.78125 C 590.304688 671.847656 586.519531 677.84375 586.078125 686.773438 C 586.519531 677.8125 592.28125 669.984375 600.707031 666.898438 C 612.964844 662.410156 622.0625 655.28125 628 645.507812 C 628.34375 644.941406 628.714844 644.386719 629.109375 643.851562 C 637.507812 632.464844 644.578125 611.722656 650.320312 581.621094 L 650.078125 583.195312 C 666.082031 447.238281 685.324219 332.710938 707.808594 239.605469 L 707.375 241.925781 C 708.097656 236.457031 708.378906 232.84375 708.21875 231.078125 C 708.84375 237.957031 713.199219 242.773438 721.285156 245.535156 C 720.171875 245.15625 719.089844 244.6875 718.050781 244.136719 C 723.042969 246.777344 727.347656 247.035156 730.96875 244.902344 C 727.308594 247.058594 721.214844 254.238281 712.691406 266.445312 C 712.078125 267.324219 711.402344 268.15625 710.671875 268.9375 C 699.082031 281.292969 656.566406 348.953125 583.117188 471.917969 C 582.875 472.320312 582.625 472.714844 582.359375 473.105469 C 565.195312 498.109375 548.402344 513.953125 531.972656 520.632812 L 535.125 519.050781 C 533.765625 519.871094 532.375 520.597656 530.953125 521.222656 C 519.839844 526.125 508.761719 525.164062 497.722656 518.34375 C 484.675781 510.28125 471.734375 491.691406 458.894531 462.566406 L 459.613281 464.042969 C 445.847656 438.164062 418.59375 362.386719 377.855469 236.710938 L 377.96875 237.058594 C 374.632812 227.304688 372.015625 221.214844 370.117188 218.785156 C 371.515625 220.578125 373.816406 221.9375 377.015625 222.871094 L 378.976562 223.347656 C 379.996094 223.546875 381.035156 223.648438 382.09375 223.660156 C 390.828125 223.738281 396.171875 220.414062 398.132812 213.691406 C 397.710938 215.140625 397.480469 217.996094 397.441406 222.253906 L 397.421875 221.125 C 401.527344 319.992188 403.332031 404.632812 402.839844 475.050781 L 402.835938 474.527344 C 403.292969 502.367188 401.589844 521.464844 397.722656 531.828125 C 395 539.132812 390.78125 544.492188 385.078125 547.898438 L 388.511719 545.371094 C 381.042969 552.050781 371.761719 554.433594 360.671875 552.523438 C 356.480469 551.800781 352.007812 550.398438 347.25 548.324219 C 346.246094 547.886719 345.273438 547.375 344.347656 546.796875 C 281.5 507.539062 235.761719 483.246094 207.132812 473.914062 C 206.902344 473.839844 206.675781 473.761719 206.449219 473.679688 C 163.078125 457.96875 136.550781 451.410156 126.859375 454 C 126.867188 454 126.878906 453.996094 126.894531 453.992188 L 137.484375 447 C 142.769531 440.710938 143.84375 434.722656 140.703125 429.042969 C 140.824219 429.261719 141.054688 429.605469 141.390625 430.066406 L 139.65625 427.976562 C 198.214844 490.292969 235.535156 533.753906 251.613281 558.351562 L 251.136719 557.652344 C 303.875 632 332.558594 677.738281 337.191406 694.863281 C 338.648438 700.257812 338.839844 705.246094 337.765625 709.824219 C 334.945312 721.832031 322.921875 729.28125 310.914062 726.460938 C 298.910156 723.640625 291.460938 711.617188 294.28125 699.609375 Z M 294.28125 699.609375 " fill-opacity="1" fill-rule="nonzero"/><path fill="#fef8e8" d="M 728.394531 99.179688 C 730.34375 100.222656 733.765625 101.429688 738.652344 102.800781 C 739.847656 103.132812 741.011719 103.566406 742.132812 104.09375 L 742.132812 104.097656 C 741.046875 103.585938 740.003906 103.1875 739.007812 102.90625 C 740.351562 103.285156 746.988281 104.976562 758.921875 107.984375 C 759.078125 108.027344 759.234375 108.066406 759.390625 108.109375 C 776.945312 112.941406 787.15625 115.664062 790.015625 116.273438 C 802.078125 118.84375 809.773438 130.707031 807.203125 142.769531 C 804.632812 154.835938 792.769531 162.53125 780.707031 159.960938 C 776.992188 159.167969 765.933594 156.238281 747.535156 151.175781 L 748.003906 151.296875 C 735.675781 148.191406 728.640625 146.390625 726.902344 145.902344 C 725.527344 145.515625 724.265625 145.050781 723.121094 144.511719 L 726.597656 145.808594 C 718.570312 143.558594 712.140625 141.140625 707.316406 138.558594 C 696.441406 132.738281 692.34375 119.203125 698.164062 108.328125 C 703.988281 97.453125 717.519531 93.359375 728.394531 99.179688 Z M 728.394531 99.179688 " fill-opacity="1" fill-rule="nonzero"/><path fill="#fef8e8" d="M 782.917969 96.234375 C 780.457031 106.132812 778.554688 112.929688 777.210938 116.617188 C 777.191406 116.671875 777.171875 116.722656 777.152344 116.777344 L 764.058594 151.859375 C 759.746094 163.414062 746.882812 169.289062 735.328125 164.976562 C 723.773438 160.664062 717.898438 147.800781 722.210938 136.242188 L 735.300781 101.160156 L 735.242188 101.320312 C 736.046875 99.113281 737.488281 93.828125 739.570312 85.460938 C 742.542969 73.492188 754.660156 66.199219 766.628906 69.171875 C 778.601562 72.148438 785.890625 84.261719 782.917969 96.234375 Z M 782.917969 96.234375 " fill-opacity="1" fill-rule="nonzero"/><path fill="#fef8e8" d="M 322.9375 85.953125 C 327.179688 85.699219 331.691406 84.980469 336.480469 83.792969 L 336.34375 83.828125 C 337.570312 83.515625 338.917969 83.136719 340.394531 82.683594 L 340.128906 82.765625 C 354.265625 78.242188 365.867188 74.683594 374.933594 72.082031 C 386.789062 68.6875 399.15625 75.542969 402.554688 87.402344 C 405.953125 99.257812 399.09375 111.625 387.238281 115.023438 C 378.609375 117.496094 367.445312 120.925781 353.746094 125.308594 C 353.65625 125.335938 353.570312 125.363281 353.480469 125.390625 C 351.320312 126.054688 349.273438 126.628906 347.347656 127.121094 C 347.304688 127.132812 347.257812 127.144531 347.210938 127.152344 C 339.777344 128.992188 332.578125 130.121094 325.617188 130.539062 C 313.304688 131.28125 302.722656 121.898438 301.984375 109.585938 C 301.242188 97.273438 310.625 86.691406 322.9375 85.953125 Z M 322.9375 85.953125 " fill-opacity="1" fill-rule="nonzero"/><path fill="#fef8e8" d="M 369.292969 43.25 C 370.679688 49.15625 372.566406 56.683594 374.949219 65.835938 C 375.003906 66.03125 375.050781 66.230469 375.097656 66.425781 C 376.734375 73.5 378.082031 79.671875 379.136719 84.9375 L 378.519531 82.554688 C 378.746094 83.265625 378.960938 84.058594 379.164062 84.933594 C 380.089844 88.902344 382.398438 102.613281 386.097656 126.070312 C 388.019531 138.253906 379.699219 149.6875 367.515625 151.609375 C 355.332031 153.527344 343.894531 145.207031 341.976562 133.023438 C 338.445312 110.636719 336.339844 97.984375 335.660156 95.066406 C 335.726562 95.339844 335.824219 95.683594 335.953125 96.09375 C 335.703125 95.308594 335.5 94.515625 335.335938 93.707031 C 334.371094 88.878906 333.117188 83.140625 331.578125 76.5 L 331.726562 77.09375 C 329.253906 67.597656 327.28125 59.726562 325.8125 53.476562 C 322.988281 41.46875 330.429688 29.449219 342.4375 26.621094 C 354.445312 23.796875 366.46875 31.242188 369.292969 43.25 Z M 369.292969 43.25 " fill-opacity="1" fill-rule="nonzero"/><path fill="#fef8e8" d="M 21.710938 366.8125 C 28.03125 364.425781 33.304688 362.121094 37.53125 359.890625 C 37.660156 359.824219 37.789062 359.757812 37.917969 359.691406 C 45.472656 355.894531 62.335938 346.886719 88.507812 332.664062 C 99.347656 326.773438 112.90625 330.785156 118.796875 341.621094 C 124.6875 352.460938 120.675781 366.019531 109.835938 371.910156 C 83.242188 386.359375 65.957031 395.589844 57.976562 399.601562 L 58.363281 399.402344 C 52.5 402.492188 45.542969 405.558594 37.492188 408.601562 C 25.953125 412.957031 13.066406 407.136719 8.707031 395.597656 C 4.351562 384.058594 10.171875 371.171875 21.710938 366.8125 Z M 21.710938 366.8125 " fill-opacity="1" fill-rule="nonzero"/><path fill="#fef8e8" d="M 43.109375 329.058594 C 52.371094 341.003906 57.882812 348.28125 59.644531 350.894531 C 67.785156 362.945312 66.320312 373.253906 55.261719 381.828125 C 48.070312 387.394531 40.351562 388.257812 32.113281 384.414062 L 60.238281 351.945312 C 61.820312 354.367188 63.394531 356.917969 64.957031 359.601562 C 64.976562 359.632812 64.992188 359.664062 65.011719 359.699219 L 80.078125 385.875 C 86.234375 396.5625 82.554688 410.21875 71.867188 416.371094 C 61.175781 422.523438 47.519531 418.847656 41.367188 408.15625 L 26.300781 381.980469 L 26.359375 382.082031 C 25.183594 380.066406 24.015625 378.171875 22.855469 376.394531 C 17.394531 368.046875 18.132812 357.089844 24.667969 349.550781 C 31.199219 342.007812 41.9375 339.714844 50.980469 343.925781 C 42.773438 340.097656 35.078125 340.964844 27.898438 346.523438 C 16.910156 355.035156 15.15625 364.828125 22.628906 375.894531 C 21.410156 374.089844 16.46875 367.597656 7.804688 356.417969 C 0.25 346.667969 2.027344 332.640625 11.777344 325.085938 C 21.527344 317.527344 35.554688 319.308594 43.109375 329.058594 Z M 43.109375 329.058594 " fill-opacity="1" fill-rule="nonzero"/></svg>