<svg viewBox="0 0 120 120" fill="none" xmlns="http://www.w3.org/2000/svg">
  <rect width="120" height="120" fill="#FEF8E8"/>
  <path d="M30 75C30 60 45 45 60 45C75 45 90 60 90 75C90 90 75 105 60 105C45 105 30 90 30 75Z" fill="#3BBCA8"/>
  <path d="M25 55C25 42.5 35 32.5 47.5 32.5C60 32.5 70 42.5 70 55C70 67.5 60 77.5 47.5 77.5C35 77.5 25 67.5 25 55Z" fill="#3BBCA8"/>
  <path d="M50 55C50 42.5 60 32.5 72.5 32.5C85 32.5 95 42.5 95 55C95 67.5 85 77.5 72.5 77.5C60 77.5 50 67.5 50 55Z" fill="#3BBCA8"/>
  <path d="M40 35C40 27.5 45 20 52.5 20C60 20 65 27.5 65 35C65 42.5 60 50 52.5 50C45 50 40 42.5 40 35Z" fill="#3BBCA8"/>
  <path d="M55 35C55 27.5 60 20 67.5 20C75 20 80 27.5 80 35C80 42.5 75 50 67.5 50C60 50 55 42.5 55 35Z" fill="#3BBCA8"/>
</svg>