<svg xmlns="http://www.w3.org/2000/svg" xmlns:xlink="http://www.w3.org/1999/xlink" width="1080" zoomAndPan="magnify" viewBox="0 0 810 809.999993" height="1080" preserveAspectRatio="xMidYMid meet" version="1.0"><defs><clipPath id="75dde8e9ef"><path d="M 266 124 L 581 124 L 581 571 L 266 571 Z M 266 124 " clip-rule="nonzero"/></clipPath><clipPath id="79485e03c7"><path d="M 0 182.3125 L 719.8125 66.945312 L 809.664062 627.539062 L 89.847656 742.90625 Z M 0 182.3125 " clip-rule="nonzero"/></clipPath><clipPath id="d40ddfe884"><path d="M 0 182.3125 L 719.8125 66.945312 L 809.664062 627.539062 L 89.847656 742.90625 Z M 0 182.3125 " clip-rule="nonzero"/></clipPath><clipPath id="5e4c77272d"><path d="M 46 391 L 174 391 L 174 532 L 46 532 Z M 46 391 " clip-rule="nonzero"/></clipPath><clipPath id="7ae7d2ade8"><path d="M 0 182.3125 L 719.8125 66.945312 L 809.664062 627.539062 L 89.847656 742.90625 Z M 0 182.3125 " clip-rule="nonzero"/></clipPath><clipPath id="c92d4e7f32"><path d="M 0 182.3125 L 719.8125 66.945312 L 809.664062 627.539062 L 89.847656 742.90625 Z M 0 182.3125 " clip-rule="nonzero"/></clipPath><clipPath id="d65799da04"><path d="M 618 158 L 739 158 L 739 284 L 618 284 Z M 618 158 " clip-rule="nonzero"/></clipPath><clipPath id="a147771e02"><path d="M 0 182.3125 L 719.8125 66.945312 L 809.664062 627.539062 L 89.847656 742.90625 Z M 0 182.3125 " clip-rule="nonzero"/></clipPath><clipPath id="c9708e7ece"><path d="M 0 182.3125 L 719.8125 66.945312 L 809.664062 627.539062 L 89.847656 742.90625 Z M 0 182.3125 " clip-rule="nonzero"/></clipPath><clipPath id="2f2837ed2c"><path d="M 207 594 L 346 594 L 346 709 L 207 709 Z M 207 594 " clip-rule="nonzero"/></clipPath><clipPath id="ca678743f9"><path d="M 0 182.3125 L 719.8125 66.945312 L 809.664062 627.539062 L 89.847656 742.90625 Z M 0 182.3125 " clip-rule="nonzero"/></clipPath><clipPath id="d136cf20a8"><path d="M 0 182.3125 L 719.8125 66.945312 L 809.664062 627.539062 L 89.847656 742.90625 Z M 0 182.3125 " clip-rule="nonzero"/></clipPath><clipPath id="02c9b9b690"><path d="M 618 331 L 701 331 L 701 424 L 618 424 Z M 618 331 " clip-rule="nonzero"/></clipPath><clipPath id="390458a89f"><path d="M 0 182.3125 L 719.8125 66.945312 L 809.664062 627.539062 L 89.847656 742.90625 Z M 0 182.3125 " clip-rule="nonzero"/></clipPath><clipPath id="3eabc2a40f"><path d="M 0 182.3125 L 719.8125 66.945312 L 809.664062 627.539062 L 89.847656 742.90625 Z M 0 182.3125 " clip-rule="nonzero"/></clipPath><clipPath id="808e8935ce"><path d="M 670 513 L 693 513 L 693 535 L 670 535 Z M 670 513 " clip-rule="nonzero"/></clipPath><clipPath id="724e6d7d32"><path d="M 0 182.3125 L 719.8125 66.945312 L 809.664062 627.539062 L 89.847656 742.90625 Z M 0 182.3125 " clip-rule="nonzero"/></clipPath><clipPath id="1ade3cebbd"><path d="M 0 182.3125 L 719.8125 66.945312 L 809.664062 627.539062 L 89.847656 742.90625 Z M 0 182.3125 " clip-rule="nonzero"/></clipPath><clipPath id="b29ac2c52b"><path d="M 104 620 L 129 620 L 129 642 L 104 642 Z M 104 620 " clip-rule="nonzero"/></clipPath><clipPath id="1144d01a0b"><path d="M 0 182.3125 L 719.8125 66.945312 L 809.664062 627.539062 L 89.847656 742.90625 Z M 0 182.3125 " clip-rule="nonzero"/></clipPath><clipPath id="db0f063a38"><path d="M 0 182.3125 L 719.8125 66.945312 L 809.664062 627.539062 L 89.847656 742.90625 Z M 0 182.3125 " clip-rule="nonzero"/></clipPath><clipPath id="d3cec32a60"><path d="M 552 275 L 572 275 L 572 296 L 552 296 Z M 552 275 " clip-rule="nonzero"/></clipPath><clipPath id="ebeed6f528"><path d="M 0 182.3125 L 719.8125 66.945312 L 809.664062 627.539062 L 89.847656 742.90625 Z M 0 182.3125 " clip-rule="nonzero"/></clipPath><clipPath id="076d605252"><path d="M 0 182.3125 L 719.8125 66.945312 L 809.664062 627.539062 L 89.847656 742.90625 Z M 0 182.3125 " clip-rule="nonzero"/></clipPath><clipPath id="5992a9b992"><path d="M 581 601 L 599 601 L 599 624 L 581 624 Z M 581 601 " clip-rule="nonzero"/></clipPath><clipPath id="cc4263e4c4"><path d="M 0 182.3125 L 719.8125 66.945312 L 809.664062 627.539062 L 89.847656 742.90625 Z M 0 182.3125 " clip-rule="nonzero"/></clipPath><clipPath id="2f8cb41388"><path d="M 0 182.3125 L 719.8125 66.945312 L 809.664062 627.539062 L 89.847656 742.90625 Z M 0 182.3125 " clip-rule="nonzero"/></clipPath></defs><g clip-path="url(#75dde8e9ef)"><g clip-path="url(#79485e03c7)"><g clip-path="url(#d40ddfe884)"><path fill="#fef8e8" d="M 435.429688 566.371094 C 391.496094 572.101562 342.089844 573.796875 293.542969 558.054688 C 292.03125 557.5625 290.5 557.121094 289.015625 556.550781 C 265.648438 547.558594 262.191406 541.425781 269.6875 517.660156 C 300.402344 420.230469 331.289062 322.859375 362.34375 225.542969 C 363.695312 221.292969 364.59375 216.890625 366.214844 212.746094 C 371.921875 198.164062 373.636719 185.960938 360.480469 172.320312 C 346.3125 157.636719 348.816406 139.894531 361.753906 130.113281 C 370.003906 123.871094 379.140625 121.792969 388.554688 126.882812 C 398.382812 132.195312 398.808594 142.441406 397.632812 151.375 C 396.316406 161.296875 392.792969 171.144531 388.800781 180.414062 C 386.507812 185.75 385.898438 189.523438 389.21875 194.417969 C 401.609375 212.800781 413.832031 231.296875 425.886719 249.898438 C 460.535156 303.21875 495.128906 356.570312 529.671875 409.949219 C 545.257812 433.996094 560.328125 458.398438 576.652344 481.925781 C 583.167969 491.308594 581.632812 498.296875 575.164062 505.789062 C 561.738281 521.339844 544.199219 531.1875 525.992188 539.65625 C 498.988281 552.210938 470.597656 560.664062 435.429688 566.371094 Z M 492.382812 375.21875 C 486.632812 383.613281 482.152344 392.734375 475.382812 399.605469 C 432.164062 443.5 380.203125 472.707031 320.503906 487.253906 C 287.734375 495.238281 287.617188 494.121094 280.585938 527.5625 C 279.195312 534.183594 280.617188 538.089844 286.988281 539.90625 C 303.742188 544.675781 320.507812 549.40625 337.328125 553.925781 C 339.320312 554.480469 341.832031 554.03125 343.847656 553.316406 C 391.101562 536.46875 436.257812 515.425781 475.769531 484.011719 C 493.675781 469.792969 512.152344 455.601562 522.203125 434.015625 C 523.691406 430.8125 524.394531 425.5625 522.777344 422.871094 C 513.015625 406.628906 502.464844 390.84375 492.382812 375.222656 Z M 293.878906 481.578125 C 349.421875 469.648438 399.042969 447.511719 442.992188 412.957031 C 458.4375 400.808594 471.933594 386.882812 480.710938 369.023438 C 481.988281 366.421875 483.367188 362.226562 482.1875 360.328125 C 472.816406 345.183594 462.835938 330.417969 454.308594 317.457031 C 442.96875 329.121094 432.945312 341.039062 421.3125 351.09375 C 392.945312 375.628906 359.679688 391.195312 323.75 401.453125 C 321.246094 402.167969 318.203125 404.667969 317.4375 407.003906 C 309.449219 431.472656 301.867188 456.082031 293.878906 481.578125 Z M 372.539062 556.484375 C 375.113281 556.707031 376.65625 556.972656 378.195312 556.957031 C 425.148438 556.59375 470.871094 549.9375 514.21875 530.753906 C 532.035156 522.878906 549.425781 514.277344 562.753906 499.625 C 564.867188 497.296875 566.53125 491.75 565.238281 489.582031 C 554.875 472.246094 543.757812 455.367188 532.980469 438.527344 C 496.148438 499.742188 435.097656 527.742188 372.539062 556.484375 Z M 323.441406 387.746094 C 326.171875 387.308594 328.070312 387.28125 329.773438 386.6875 C 365.300781 374.390625 398.242188 357.429688 425.582031 331.175781 C 432.132812 324.886719 436.933594 316.695312 442.027344 309.03125 C 443.269531 307.160156 443.5625 303.242188 442.429688 301.445312 C 435.578125 290.585938 428.1875 280.078125 420.816406 269.214844 C 400.820312 294.945312 385.035156 305.941406 350.300781 319.066406 C 347.738281 320.035156 344.445312 322.078125 343.6875 324.351562 C 336.753906 345.09375 330.3125 366.003906 323.441406 387.746094 Z M 349.882812 305.144531 C 353.628906 303.863281 355.398438 303.351562 357.105469 302.675781 C 377.691406 294.308594 396.65625 283.566406 409.632812 264.792969 C 411.363281 262.289062 412.402344 257.292969 411.078125 255.019531 C 402.050781 239.550781 392.304688 224.5 382.515625 208.875 Z M 375.972656 173.78125 L 379.667969 173.277344 C 381.582031 164.40625 384.027344 155.597656 385.109375 146.648438 C 385.460938 143.75 382.902344 138.652344 380.476562 137.734375 C 377.308594 136.535156 370.867188 137.199219 369.527344 139.359375 C 366.6875 143.9375 364.109375 150.53125 365.316406 155.3125 C 366.992188 161.933594 372.253906 167.660156 375.976562 173.78125 Z M 375.972656 173.78125 " fill-opacity="1" fill-rule="nonzero"/></g></g></g><g clip-path="url(#5e4c77272d)"><g clip-path="url(#7ae7d2ade8)"><g clip-path="url(#c92d4e7f32)"><path fill="#fef8e8" d="M 82.269531 516.933594 C 80.863281 504.648438 80.042969 494.453125 78.347656 484.414062 C 77.839844 481.40625 75.503906 477.816406 72.9375 476.234375 C 66.457031 472.222656 59.070312 469.703125 52.574219 465.691406 C 44.640625 460.78125 44.925781 454.820312 53.179688 450.652344 C 61.109375 446.644531 69.734375 443.972656 77.488281 439.691406 C 80.726562 437.902344 83.957031 433.742188 84.652344 430.167969 C 86.644531 419.929688 86.992188 409.371094 88.773438 399.070312 C 89.261719 396.234375 92.058594 392.652344 94.640625 391.707031 C 96.578125 390.992188 100.574219 393.328125 102.410156 395.40625 C 107.714844 401.359375 112.625 407.625 117.128906 414.203125 C 120.773438 419.546875 124.558594 421.9375 131.367188 420.128906 C 141.234375 417.460938 151.246094 415.503906 161.390625 414.261719 C 165.09375 413.828125 171.472656 415.648438 172.523438 418.152344 C 173.9375 421.535156 172.523438 427.316406 170.320312 430.769531 C 164.71875 439.585938 153.253906 447.59375 153.074219 456.109375 C 152.898438 464.492188 163.988281 472.929688 169.574219 481.703125 C 171.722656 485.085938 172.316406 489.464844 173.628906 493.382812 C 169.578125 494.605469 165.4375 497.085938 161.492188 496.804688 C 151.054688 496.078125 140.738281 493.695312 130.320312 492.953125 C 126.695312 492.695312 121.488281 494.207031 119.378906 496.824219 C 112.386719 505.507812 106.679688 515.21875 100.019531 524.191406 C 97.789062 527.199219 94.167969 529.175781 91.171875 531.625 C 88.738281 528.464844 86.019531 525.464844 83.96875 522.09375 C 82.671875 520 82.378906 517.292969 82.269531 516.933594 Z M 65.011719 459.699219 C 70.292969 462.242188 75.808594 465.179688 81.554688 467.589844 C 87.882812 470.25 90.542969 474.101562 90.410156 481.492188 C 90.222656 491.722656 91.949219 501.996094 92.714844 510.433594 C 98.789062 503.113281 105.511719 495.511719 111.636719 487.457031 C 115.703125 482.113281 119.917969 479.457031 127.035156 480.925781 C 136.515625 482.898438 146.203125 483.714844 157.304688 485.242188 C 152.667969 478.824219 149.105469 473.976562 145.636719 469.058594 C 136.976562 456.777344 137.082031 454.175781 146.59375 442.34375 L 159.328125 426.472656 C 148.324219 428.238281 139.109375 429.191406 130.164062 431.296875 C 121.441406 433.351562 115.460938 430.640625 110.582031 423.519531 C 107.070312 418.410156 103.019531 413.648438 99.058594 408.535156 C 96.921875 420.253906 97.757812 432.921875 92.179688 441.324219 C 86.707031 449.589844 74.703125 453.519531 65.011719 459.699219 Z M 65.011719 459.699219 " fill-opacity="1" fill-rule="nonzero"/></g></g></g><g clip-path="url(#d65799da04)"><g clip-path="url(#a147771e02)"><g clip-path="url(#c9708e7ece)"><path fill="#fef8e8" d="M 713.367188 217.761719 C 711.496094 222.1875 710.683594 226.214844 708.40625 229.074219 C 703.726562 234.9375 699.035156 241.421875 692.90625 245.347656 C 685.914062 249.808594 676.945312 251.597656 669.75 245.003906 C 662.667969 238.515625 663.359375 230.011719 666.863281 221.984375 C 671.289062 211.84375 678.546875 204.554688 689.914062 202.410156 C 693.648438 201.703125 697.421875 201.207031 701.179688 200.605469 C 697.339844 178.578125 671.488281 168.074219 655.945312 171.054688 C 636.429688 174.792969 626.441406 192.21875 633.839844 210.4375 C 634.4375 211.90625 636.003906 213.257812 635.972656 214.640625 C 635.898438 217.511719 635.050781 220.363281 634.527344 223.21875 C 631.609375 222.226562 627.605469 222.144531 625.953125 220.105469 C 614.292969 205.824219 616.585938 183.695312 631.023438 170.878906 C 645.460938 158.0625 662.359375 155.378906 680.160156 161.535156 C 697.839844 167.644531 709.644531 179.742188 713.738281 198.753906 C 714.558594 202.550781 717.179688 206.839844 720.269531 209.1875 C 746.085938 228.804688 744.339844 269.796875 716.632812 282.972656 C 713.851562 284.289062 709.761719 282.878906 706.28125 282.730469 C 707.667969 279.351562 708.078125 274.585938 710.597656 272.804688 C 731.191406 258.300781 732.683594 237.769531 713.367188 217.761719 Z M 702.910156 213.441406 C 689.769531 212.617188 682.8125 217.617188 678.203125 225.695312 C 676.703125 228.335938 677.652344 232.375 677.476562 235.773438 C 681.035156 235.585938 686.199219 236.824219 687.855469 234.949219 C 693.234375 228.890625 697.328125 221.6875 702.910156 213.441406 Z M 702.910156 213.441406 " fill-opacity="1" fill-rule="nonzero"/></g></g></g><g clip-path="url(#2f2837ed2c)"><g clip-path="url(#ca678743f9)"><g clip-path="url(#d136cf20a8)"><path fill="#fef8e8" d="M 243.816406 658.671875 C 246.835938 643.921875 252.203125 632.195312 264.332031 624.964844 C 270.960938 621.011719 277.960938 616.789062 285.671875 621.9375 C 293.660156 627.277344 294.402344 635.429688 292.820312 644.148438 C 289.9375 659.972656 276.46875 671.269531 257.402344 673.742188 C 258.914062 690.890625 279.226562 699.925781 296.527344 694.96875 C 314.617188 689.773438 328.3125 679.230469 332.757812 659.359375 C 333.394531 656.519531 337.480469 654.449219 339.96875 652.027344 C 341.742188 654.9375 345.449219 658.191406 344.992188 660.695312 C 340.84375 683.570312 326.355469 697.957031 304.945312 705.160156 C 286.675781 711.304688 269.476562 708.613281 255.359375 694.542969 C 251.636719 690.828125 247.402344 686.050781 246.683594 681.253906 C 245.40625 673.027344 240.574219 670.386719 234.148438 666.714844 C 212.039062 654.0625 206.28125 633.207031 208.046875 609.316406 C 208.277344 606.160156 208.300781 602.730469 209.605469 599.988281 C 210.753906 597.621094 213.632812 596.121094 215.742188 594.238281 C 217.585938 596.828125 220.734375 599.277344 221.03125 602.035156 C 222.15625 612.40625 221.160156 623.117188 223.207031 633.246094 C 225.390625 644.09375 232.601562 652.367188 243.816406 658.671875 Z M 255.160156 660.84375 C 269.976562 660.074219 278.773438 653.523438 280.980469 641.789062 C 281.453125 639.308594 281.132812 634.96875 279.742188 634.242188 C 277.53125 633.09375 273.5625 633.308594 271.300781 634.621094 C 261.605469 640.222656 256.792969 649.179688 255.160156 660.84375 Z M 255.160156 660.84375 " fill-opacity="1" fill-rule="nonzero"/></g></g></g><g clip-path="url(#02c9b9b690)"><g clip-path="url(#390458a89f)"><g clip-path="url(#3eabc2a40f)"><path fill="#fef8e8" d="M 653.007812 331.507812 C 655.480469 334.671875 657.667969 336.476562 658.539062 338.765625 C 660.300781 343.542969 660.695312 348.898438 662.828125 353.449219 C 668.136719 364.761719 678.0625 368.839844 689.964844 369.921875 C 693.59375 370.246094 697.042969 372.574219 700.574219 373.992188 C 697.851562 376.777344 695.628906 380.667969 692.324219 382.148438 C 677.941406 388.589844 669.101562 399.367188 664.148438 414.09375 C 662.957031 417.578125 659.515625 420.28125 657.109375 423.335938 C 654.933594 419.757812 652.175781 416.339844 650.738281 412.464844 C 649.4375 408.960938 649.742188 404.898438 649.058594 401.136719 C 647.332031 391.640625 641.640625 386.667969 631.875 386.527344 C 629.640625 386.5 627.265625 386.832031 625.203125 386.1875 C 622.808594 385.441406 620.6875 383.808594 618.445312 382.558594 C 620.144531 380.222656 621.386719 377.152344 623.65625 375.742188 C 626.230469 374.136719 629.707031 373.898438 632.832031 373.277344 C 643.992188 371.011719 647.386719 366.648438 647.398438 354.871094 C 647.410156 349.5 647.453125 344.078125 648.195312 338.78125 C 648.488281 336.675781 650.746094 334.832031 653.007812 331.507812 Z M 647.171875 379.890625 L 659.914062 393.59375 L 674.128906 378.375 L 657.417969 368.144531 Z M 647.171875 379.890625 " fill-opacity="1" fill-rule="nonzero"/></g></g></g><g clip-path="url(#808e8935ce)"><g clip-path="url(#724e6d7d32)"><g clip-path="url(#1ade3cebbd)"><path fill="#fef8e8" d="M 670.503906 523.964844 C 674.109375 520.421875 677.261719 515.027344 681.472656 513.980469 C 684.296875 513.296875 690.808594 518.222656 691.820312 521.742188 C 693.628906 528.054688 689.972656 534.308594 682.738281 534.445312 C 678.921875 534.515625 675.027344 530.507812 671.167969 528.34375 C 670.949219 526.886719 670.726562 525.421875 670.503906 523.964844 Z M 670.503906 523.964844 " fill-opacity="1" fill-rule="nonzero"/></g></g></g><g clip-path="url(#b29ac2c52b)"><g clip-path="url(#1144d01a0b)"><g clip-path="url(#db0f063a38)"><path fill="#fef8e8" d="M 128.160156 628.140625 C 122.820312 634.105469 120.203125 639.597656 116.234375 640.871094 C 109.746094 642.957031 104.464844 637.761719 104.78125 631.664062 C 104.992188 627.554688 109.414062 621.429688 113.125 620.394531 C 116.40625 619.476562 121.308594 624.351562 128.160156 628.140625 Z M 128.160156 628.140625 " fill-opacity="1" fill-rule="nonzero"/></g></g></g><g clip-path="url(#d3cec32a60)"><g clip-path="url(#ebeed6f528)"><g clip-path="url(#076d605252)"><path fill="#fef8e8" d="M 561.703125 295.296875 C 557.285156 296.253906 553.324219 293.695312 552.316406 287.722656 C 551.3125 281.75 553.578125 275.886719 559.910156 275.800781 C 563.664062 275.75 569.488281 279.667969 570.785156 283.144531 C 572.652344 288.140625 570.453125 293.84375 561.703125 295.296875 Z M 561.703125 295.296875 " fill-opacity="1" fill-rule="nonzero"/></g></g></g><g clip-path="url(#5992a9b992)"><g clip-path="url(#cc4263e4c4)"><g clip-path="url(#2f8cb41388)"><path fill="#fef8e8" d="M 587.945312 601.785156 C 593.179688 607.230469 598.632812 610.984375 598.054688 612.746094 C 596.734375 616.828125 592.464844 619.945312 589.390625 623.457031 C 586.699219 621.007812 581.953125 618.671875 581.808594 616.082031 C 581.605469 612.425781 584.800781 608.578125 587.945312 601.785156 Z M 587.945312 601.785156 " fill-opacity="1" fill-rule="nonzero"/></g></g></g></svg>