<svg xmlns="http://www.w3.org/2000/svg" xmlns:xlink="http://www.w3.org/1999/xlink" width="1080" zoomAndPan="magnify" viewBox="0 0 810 809.999993" height="1080" preserveAspectRatio="xMidYMid meet" version="1.0"><defs><clipPath id="5a1c9cbb16"><path d="M 240 215 L 553 215 L 553 737 L 240 737 Z M 240 215 " clip-rule="nonzero"/></clipPath><clipPath id="3b06729e7c"><path d="M 255.570312 0 L 749.285156 144.765625 L 554.296875 809.765625 L 60.582031 665.003906 Z M 255.570312 0 " clip-rule="nonzero"/></clipPath><clipPath id="2bd2e09a5b"><path d="M 255.570312 0 L 749.285156 144.765625 L 554.296875 809.765625 L 60.582031 665.003906 Z M 255.570312 0 " clip-rule="nonzero"/></clipPath><clipPath id="600fb705c9"><path d="M 348 338 L 443 338 L 443 531 L 348 531 Z M 348 338 " clip-rule="nonzero"/></clipPath><clipPath id="27b8ee62d9"><path d="M 255.570312 0 L 749.285156 144.765625 L 554.296875 809.765625 L 60.582031 665.003906 Z M 255.570312 0 " clip-rule="nonzero"/></clipPath><clipPath id="62a7a64080"><path d="M 255.570312 0 L 749.285156 144.765625 L 554.296875 809.765625 L 60.582031 665.003906 Z M 255.570312 0 " clip-rule="nonzero"/></clipPath><clipPath id="574270bd98"><path d="M 199 194 L 273 194 L 273 267 L 199 267 Z M 199 194 " clip-rule="nonzero"/></clipPath><clipPath id="6443e584e0"><path d="M 255.570312 0 L 749.285156 144.765625 L 554.296875 809.765625 L 60.582031 665.003906 Z M 255.570312 0 " clip-rule="nonzero"/></clipPath><clipPath id="bc92d33eba"><path d="M 255.570312 0 L 749.285156 144.765625 L 554.296875 809.765625 L 60.582031 665.003906 Z M 255.570312 0 " clip-rule="nonzero"/></clipPath><clipPath id="37553dc8de"><path d="M 289 111 L 338 111 L 338 197 L 289 197 Z M 289 111 " clip-rule="nonzero"/></clipPath><clipPath id="02714880b1"><path d="M 255.570312 0 L 749.285156 144.765625 L 554.296875 809.765625 L 60.582031 665.003906 Z M 255.570312 0 " clip-rule="nonzero"/></clipPath><clipPath id="56d45e865f"><path d="M 255.570312 0 L 749.285156 144.765625 L 554.296875 809.765625 L 60.582031 665.003906 Z M 255.570312 0 " clip-rule="nonzero"/></clipPath><clipPath id="17ea8a3fe7"><path d="M 575 362 L 682 362 L 682 382 L 575 382 Z M 575 362 " clip-rule="nonzero"/></clipPath><clipPath id="d3e00065ca"><path d="M 255.570312 0 L 749.285156 144.765625 L 554.296875 809.765625 L 60.582031 665.003906 Z M 255.570312 0 " clip-rule="nonzero"/></clipPath><clipPath id="9d8eaf1f70"><path d="M 255.570312 0 L 749.285156 144.765625 L 554.296875 809.765625 L 60.582031 665.003906 Z M 255.570312 0 " clip-rule="nonzero"/></clipPath><clipPath id="fb83e25343"><path d="M 563 241 L 679 241 L 679 293 L 563 293 Z M 563 241 " clip-rule="nonzero"/></clipPath><clipPath id="00ce795c03"><path d="M 255.570312 0 L 749.285156 144.765625 L 554.296875 809.765625 L 60.582031 665.003906 Z M 255.570312 0 " clip-rule="nonzero"/></clipPath><clipPath id="5832e46d46"><path d="M 255.570312 0 L 749.285156 144.765625 L 554.296875 809.765625 L 60.582031 665.003906 Z M 255.570312 0 " clip-rule="nonzero"/></clipPath><clipPath id="7b3aad2e2c"><path d="M 545 147 L 612 147 L 612 226 L 545 226 Z M 545 147 " clip-rule="nonzero"/></clipPath><clipPath id="4e20071c7b"><path d="M 255.570312 0 L 749.285156 144.765625 L 554.296875 809.765625 L 60.582031 665.003906 Z M 255.570312 0 " clip-rule="nonzero"/></clipPath><clipPath id="65703e3fe2"><path d="M 255.570312 0 L 749.285156 144.765625 L 554.296875 809.765625 L 60.582031 665.003906 Z M 255.570312 0 " clip-rule="nonzero"/></clipPath><clipPath id="046007bccf"><path d="M 475 81 L 522 81 L 522 186 L 475 186 Z M 475 81 " clip-rule="nonzero"/></clipPath><clipPath id="f4f11abfa5"><path d="M 255.570312 0 L 749.285156 144.765625 L 554.296875 809.765625 L 60.582031 665.003906 Z M 255.570312 0 " clip-rule="nonzero"/></clipPath><clipPath id="e9edfdd5d7"><path d="M 255.570312 0 L 749.285156 144.765625 L 554.296875 809.765625 L 60.582031 665.003906 Z M 255.570312 0 " clip-rule="nonzero"/></clipPath><clipPath id="8c6db9fc80"><path d="M 393 68 L 415 68 L 415 172 L 393 172 Z M 393 68 " clip-rule="nonzero"/></clipPath><clipPath id="8262269f45"><path d="M 255.570312 0 L 749.285156 144.765625 L 554.296875 809.765625 L 60.582031 665.003906 Z M 255.570312 0 " clip-rule="nonzero"/></clipPath><clipPath id="07601a93ef"><path d="M 255.570312 0 L 749.285156 144.765625 L 554.296875 809.765625 L 60.582031 665.003906 Z M 255.570312 0 " clip-rule="nonzero"/></clipPath></defs><g clip-path="url(#5a1c9cbb16)"><g clip-path="url(#3b06729e7c)"><g clip-path="url(#2bd2e09a5b)"><path fill="#76519f" d="M 492.109375 239.007812 C 448.296875 214.328125 388.851562 202.878906 345.363281 234.308594 C 297.449219 269.3125 280.675781 336.964844 283.183594 393.589844 C 283.484375 400.558594 285.082031 411.398438 285.976562 418.292969 C 287.898438 434.300781 288.792969 450.441406 287.722656 466.429688 C 286.417969 481.96875 284.128906 497.996094 276.78125 511.859375 C 275.550781 513.671875 276.023438 516.171875 277.894531 517.355469 C 279.714844 518.507812 282.109375 517.972656 283.269531 516.171875 C 284.027344 515 284.492188 514.121094 285.011719 513.101562 C 288.398438 506.417969 290.6875 499.207031 292.460938 491.972656 C 299.277344 463.472656 297.890625 433.695312 294.128906 404.933594 C 289.894531 361.664062 298.601562 315.847656 321.082031 278.507812 C 354.074219 224.558594 408.664062 218.121094 463.917969 240.777344 C 500.582031 255.003906 530.351562 283.730469 536.210938 323.667969 C 543.140625 370.136719 523.429688 418.152344 493.410156 453.199219 C 483.136719 464.921875 471.277344 475.351562 458.023438 482.472656 C 442.914062 490.347656 428.230469 501.441406 417.824219 516.265625 C 412.617188 523.636719 408.574219 531.855469 405.714844 540.261719 C 402.800781 548.621094 401.15625 557.320312 399.445312 564.875 C 398.886719 567.488281 397.816406 571.25 396.675781 572.976562 C 396.535156 573.1875 396.503906 573.132812 396.578125 573.089844 C 394.417969 573.265625 389.699219 571.613281 386.945312 570.359375 C 385.265625 569.648438 374.710938 565.1875 372.886719 564.382812 C 357.8125 557.964844 342.699219 551.3125 326.585938 545.90625 C 310.335938 540.808594 283.824219 532.402344 273.613281 551.816406 C 270.417969 558.714844 274.003906 565.949219 279.296875 570.5625 C 291.136719 580.585938 305.601562 586.207031 319.148438 592.746094 C 333.566406 599.449219 348.703125 605.917969 361.949219 614.175781 C 365.945312 616.824219 369.957031 619.476562 372.320312 622.945312 C 369.761719 623.652344 366.15625 623.136719 362.433594 622.421875 C 355.363281 620.953125 347.816406 618.34375 340.335938 615.566406 C 320.542969 608.492188 301.613281 598.785156 280.367188 595.253906 C 272.949219 594.15625 263.398438 594.765625 257.84375 601.480469 C 248.917969 612.675781 255.128906 625.722656 265.585938 632.628906 C 280.082031 642.414062 296.789062 647.152344 312.664062 653.265625 C 322.671875 657.265625 334.015625 660.703125 341.824219 667.128906 C 338.089844 667.476562 333.808594 666.605469 329.667969 665.738281 C 314.183594 662.308594 298.691406 656.511719 283.011719 652.21875 C 273.964844 649.914062 265.960938 647.675781 255.933594 648.351562 C 243.386719 649.050781 236.144531 661.3125 242.339844 672.53125 C 246.453125 679.542969 253.65625 683.210938 260.042969 686.367188 C 264.015625 688.230469 267.964844 689.800781 271.894531 691.269531 C 279.71875 694.230469 287.546875 696.683594 294.96875 699.496094 C 299.949219 701.542969 305.753906 703.542969 309.082031 707.074219 C 309.082031 707.074219 309.101562 707 309.105469 707.160156 L 309.105469 707.859375 C 309.191406 715.78125 307.171875 723.972656 303.417969 730.980469 C 302.566406 732.535156 303 734.519531 304.464844 735.582031 C 306.0625 736.734375 308.308594 736.375 309.457031 734.777344 C 310.234375 733.707031 310.789062 732.835938 311.375 731.867188 C 315.84375 724.25 318.558594 715.59375 318.90625 706.71875 C 318.882812 701.558594 314.496094 697.589844 311.09375 695.230469 C 300.277344 688.203125 288.167969 684.179688 276.871094 679.058594 C 273.21875 677.449219 269.632812 675.777344 266.296875 673.960938 C 261.992188 671.554688 257.625 669.023438 255.378906 665.382812 C 255.097656 664.664062 255.152344 664.585938 255.238281 664.246094 C 255.394531 664.195312 256.175781 663.964844 257.316406 663.917969 C 263.746094 663.679688 271.804688 666.265625 278.445312 668.164062 C 286.039062 670.453125 293.703125 673.144531 301.507812 675.785156 C 315.363281 679.972656 340.003906 690.417969 353.71875 681.78125 C 363.542969 675.257812 362.816406 661.835938 355.019531 654.679688 C 344.921875 645.203125 331.09375 640.925781 318.992188 636.171875 C 304.425781 630.566406 289.046875 626.234375 276.140625 617.832031 C 274.351562 616.691406 272.429688 614.746094 271.757812 613.421875 C 271.769531 613.378906 271.773438 613.367188 271.757812 613.359375 C 276.957031 612.1875 283.070312 614.265625 288.59375 615.664062 C 312.339844 622.722656 334.167969 634.609375 358.859375 640.121094 C 367.378906 641.636719 376.175781 642.789062 384.082031 636.90625 C 390.023438 632.386719 392.359375 623.664062 389.371094 616.824219 C 383.105469 602.539062 361.96875 593.503906 349.070312 586.867188 C 334.386719 579.769531 319.199219 573.429688 304.914062 566.054688 C 300.304688 563.542969 295.675781 561.15625 291.882812 557.917969 C 294.03125 557.3125 296.976562 557.269531 299.242188 557.492188 C 306.417969 558.121094 314.011719 560.285156 321.078125 562.578125 C 339.652344 568.738281 358.898438 577.410156 377.429688 585.128906 C 378.320312 585.5 380.925781 586.5625 381.742188 586.914062 C 395.558594 592.964844 409.21875 591.691406 414.296875 575.464844 C 417.402344 565.414062 418.386719 555.394531 421.804688 545.742188 C 428.6875 523.890625 445.988281 507.507812 465.929688 497.097656 C 510.378906 471.371094 539.890625 422.15625 549.921875 372.746094 C 560.839844 318.695312 541.097656 266.484375 492.085938 238.984375 Z M 255.386719 663.957031 C 255.386719 663.957031 255.347656 664.023438 255.320312 664.0625 C 255.335938 664.019531 255.347656 663.976562 255.359375 663.933594 C 255.390625 663.832031 255.402344 663.898438 255.402344 663.898438 C 255.402344 663.898438 255.386719 663.894531 255.386719 663.957031 Z M 255.386719 663.957031 " fill-opacity="1" fill-rule="nonzero"/></g></g></g><g clip-path="url(#600fb705c9)"><g clip-path="url(#27b8ee62d9)"><g clip-path="url(#62a7a64080)"><path fill="#76519f" d="M 375.859375 339.40625 C 363.78125 351.820312 355.445312 367.753906 352.433594 385.0625 C 348.96875 404.074219 353.757812 424.304688 365.550781 438.65625 C 355.523438 472.6875 350.277344 510.589844 348.269531 526.320312 C 347.789062 531.300781 354.9375 532.289062 355.949219 527.539062 C 357.511719 519.671875 359.328125 511.753906 361.167969 503.902344 C 365.535156 485.390625 370.433594 466.78125 376.382812 448.71875 C 381.953125 452.601562 388.40625 455.460938 395.671875 456.972656 C 429.957031 463.253906 455.039062 412.007812 435.476562 385.910156 C 430.480469 379.417969 423.117188 375.8125 415.386719 374.546875 C 397.128906 371.636719 383.347656 390.621094 373.121094 416.40625 C 372.101562 413.886719 371.316406 411.261719 370.785156 408.585938 C 366.605469 386.332031 374.402344 364.226562 381.917969 343.242188 C 383.285156 339.617188 378.628906 336.617188 375.878906 339.394531 Z M 402.789062 395.003906 C 405.542969 392.371094 408.867188 389.746094 412.683594 390.46875 C 419.644531 391.765625 424.105469 396.292969 425.054688 403.4375 C 427.171875 418.125 415.101562 442.800781 397.992188 439.113281 C 392.164062 437.628906 387.039062 434.652344 382.828125 430.6875 C 387.828125 418.007812 393.859375 404.425781 402.789062 395.003906 Z M 402.789062 395.003906 " fill-opacity="1" fill-rule="nonzero"/></g></g></g><g clip-path="url(#574270bd98)"><g clip-path="url(#6443e584e0)"><g clip-path="url(#bc92d33eba)"><path fill="#76519f" d="M 268.050781 249.128906 C 265.953125 246.4375 262.195312 243.242188 259.792969 240.777344 C 242.710938 224.558594 225.148438 208.84375 205.761719 195.34375 C 202.171875 192.878906 197.777344 197.378906 200.324219 200.914062 C 214.289062 219.964844 230.445312 237.136719 247.074219 253.8125 C 249.578125 256.148438 252.886719 259.847656 255.628906 261.855469 C 259.804688 265.078125 272.199219 270.25 272.734375 261.113281 C 272.421875 256.34375 270.703125 252.636719 268.054688 249.117188 Z M 268.050781 249.128906 " fill-opacity="1" fill-rule="nonzero"/></g></g></g><g clip-path="url(#37553dc8de)"><g clip-path="url(#02714880b1)"><g clip-path="url(#56d45e865f)"><path fill="#76519f" d="M 337.59375 186.167969 C 337.394531 182.191406 335.960938 178.757812 334.089844 175.402344 C 322.84375 153.882812 310.832031 132.707031 296.113281 113.292969 C 293.484375 109.875 287.9375 112.722656 289.195312 116.863281 C 296.515625 140.101562 306.832031 162.144531 317.882812 183.78125 C 320.496094 189.417969 324.390625 194.09375 330.664062 196.171875 C 336.910156 197.703125 337.90625 190.398438 337.59375 186.167969 Z M 337.59375 186.167969 " fill-opacity="1" fill-rule="nonzero"/></g></g></g><g clip-path="url(#17ea8a3fe7)"><g clip-path="url(#d3e00065ca)"><g clip-path="url(#9d8eaf1f70)"><path fill="#76519f" d="M 678.246094 365.363281 C 652.847656 362.417969 627.339844 362.332031 601.847656 362.945312 C 598.140625 363.15625 592.769531 363.027344 589.15625 363.617188 C 584 364.324219 570.121094 369.691406 576.910156 376.550781 C 582.636719 380.972656 589.320312 381.871094 596.171875 381.390625 L 602.523438 381.140625 C 627.996094 379.890625 653.433594 377.941406 678.53125 373.152344 C 682.855469 372.25 682.621094 365.964844 678.242188 365.378906 Z M 678.246094 365.363281 " fill-opacity="1" fill-rule="nonzero"/></g></g></g><g clip-path="url(#fb83e25343)"><g clip-path="url(#00ce795c03)"><g clip-path="url(#5832e46d46)"><path fill="#76519f" d="M 568.769531 292.679688 C 597.265625 285.332031 624.878906 275.257812 652.242188 264.535156 C 656.175781 262.847656 662.027344 260.851562 665.753906 258.851562 C 670.308594 256.621094 684.402344 245.828125 674.65625 241.796875 C 664.3125 239.097656 654.671875 243.851562 645.417969 247.671875 C 618.296875 258.988281 591.445312 270.941406 565.855469 285.464844 C 561.960938 287.71875 564.425781 293.753906 568.785156 292.683594 Z M 568.769531 292.679688 " fill-opacity="1" fill-rule="nonzero"/></g></g></g><g clip-path="url(#7b3aad2e2c)"><g clip-path="url(#4e20071c7b)"><g clip-path="url(#65703e3fe2)"><path fill="#76519f" d="M 551.011719 225.96875 C 557.746094 224.964844 562.59375 220.976562 566.457031 215.859375 L 570.15625 211.300781 C 584.839844 192.863281 599 174.003906 610.765625 153.507812 C 612.925781 149.714844 608.054688 145.71875 604.742188 148.570312 C 586.964844 164.148438 571.25 181.726562 556.066406 199.761719 C 553.953125 202.472656 550.550781 206.074219 548.777344 208.980469 C 545.941406 213.414062 541.851562 226.21875 550.984375 225.960938 Z M 551.011719 225.96875 " fill-opacity="1" fill-rule="nonzero"/></g></g></g><g clip-path="url(#046007bccf)"><g clip-path="url(#f4f11abfa5)"><g clip-path="url(#e9edfdd5d7)"><path fill="#76519f" d="M 482.953125 183.542969 C 495.925781 160.496094 506.3125 136.214844 516.042969 111.679688 C 517.34375 108.066406 519.636719 102.996094 520.558594 99.316406 C 521.929688 94.3125 522.765625 78.855469 513.605469 82.5625 C 507.175781 86.324219 503.683594 92.339844 501.378906 99.007812 C 501.378906 99.007812 499.050781 105.160156 499.039062 105.15625 C 489.890625 129.910156 481.414062 154.925781 475.667969 180.738281 C 474.773438 185.09375 480.691406 187.351562 482.941406 183.523438 Z M 482.953125 183.542969 " fill-opacity="1" fill-rule="nonzero"/></g></g></g><g clip-path="url(#8c6db9fc80)"><g clip-path="url(#8262269f45)"><g clip-path="url(#07601a93ef)"><path fill="#76519f" d="M 393.847656 157.019531 C 394.007812 162.25 397.820312 176.023438 405.328125 170.265625 C 410.34375 165.28125 412.007812 158.949219 412.285156 152.273438 L 412.738281 146.128906 C 414.34375 121.460938 415.25 96.734375 413.28125 72.019531 C 412.871094 67.632812 406.605469 67.144531 405.515625 71.40625 C 399.746094 95.515625 396.824219 120.082031 394.585938 144.707031 C 394.390625 148.296875 393.652344 153.457031 393.835938 157 Z M 393.847656 157.019531 " fill-opacity="1" fill-rule="nonzero"/></g></g></g></svg>