<svg xmlns="http://www.w3.org/2000/svg" xmlns:xlink="http://www.w3.org/1999/xlink" width="1080" zoomAndPan="magnify" viewBox="0 0 810 809.999993" height="1080" preserveAspectRatio="xMidYMid meet" version="1.0"><path fill="#fef8e8" d="M 800.175781 237.285156 C 809.917969 246.703125 804.164062 263.855469 793.171875 270.214844 L 644.296875 350.371094 C 642.324219 402.101562 672.195312 450.210938 629.601562 490.226562 C 552.507812 562.652344 327.582031 573.078125 234.90625 530.886719 C 179.3125 505.566406 208.214844 446.0625 189.054688 397.429688 L 99.117188 375.691406 C 95.492188 386.480469 93.238281 395.980469 93.679688 407.65625 C 95.414062 454.195312 110.507812 531.25 127.660156 573.359375 C 133.496094 587.691406 169.164062 644.257812 167.757812 651.261719 L 155.476562 664.101562 L 133.777344 649.449219 C 132.53125 670.140625 105.757812 662.089844 91.707031 674.25 L 84.421875 666.359375 L 69.125 373.839844 L 6.238281 360.917969 L -0.0820312 349 L 12.320312 331.367188 C 121.582031 279.273438 223.394531 209.785156 332.9375 158.78125 C 356.167969 147.949219 376.898438 135.832031 404.035156 142.757812 C 513.457031 173.675781 626.582031 190.90625 736.6875 218.601562 C 749.613281 221.863281 793.253906 230.640625 800.175781 237.324219 Z M 761.570312 251.050781 L 386.078125 167.878906 C 283.296875 218.160156 172.066406 269.691406 73.875 328.105469 C 68.4375 331.328125 60.1875 333.140625 59.019531 340.625 C 106.363281 354.316406 147.988281 325.851562 193.5625 313.292969 C 234.988281 301.898438 403.230469 257.734375 434.1875 266.992188 C 456.089844 273.554688 448.71875 304.03125 429.15625 309.707031 C 398.761719 318.523438 383.460938 301.050781 366.191406 300.972656 C 335.632812 300.851562 199.359375 337.808594 165.625 350.085938 C 158.699219 352.625 157.128906 348.355469 158.660156 360.515625 C 256.929688 374.886719 350.730469 419.089844 449.847656 424.96875 L 755.128906 262.121094 L 761.570312 250.972656 Z M 229.394531 499.085938 C 322.953125 538.253906 449.242188 538.65625 544.980469 505.242188 C 561.164062 499.605469 613.335938 474.808594 621.066406 461.601562 C 630.328125 445.78125 618.972656 386.5625 616.960938 365.585938 C 556.773438 392.15625 504.277344 438.898438 439.945312 455.445312 L 218.441406 400.449219 L 229.351562 499.082031 Z M 229.394531 499.085938 " fill-opacity="1" fill-rule="nonzero"/></svg>