<svg xmlns="http://www.w3.org/2000/svg" xmlns:xlink="http://www.w3.org/1999/xlink" width="1080" zoomAndPan="magnify" viewBox="0 0 810 809.999993" height="1080" preserveAspectRatio="xMidYMid meet" version="1.0"><path fill="#fef8e8" d="M 266.957031 803.464844 C 272.953125 796.621094 276.851562 787.929688 281.660156 780.121094 C 291.722656 762.550781 301.972656 745.105469 312.421875 727.796875 C 344.207031 675.949219 377.269531 624.953125 412.375 575.625 C 418.992188 566.492188 426.269531 556.8125 434.089844 546.660156 C 453.65625 556.390625 474.121094 566.816406 495.300781 577.695312 C 515.144531 587.84375 534.957031 598.101562 554.96875 607.839844 C 564.519531 611.902344 573.671875 618 583.90625 619.222656 C 592.921875 619.976562 600.84375 612.074219 600.585938 602.644531 C 599.714844 593.109375 596.0625 583.871094 594.132812 574.4375 C 589.007812 553.636719 583.585938 532.894531 578.046875 512.183594 C 569.261719 480.417969 559.300781 448.960938 549 417.59375 C 558.671875 411.34375 568.566406 405.460938 578.417969 399.503906 C 611.667969 377.820312 640.535156 350.140625 670.5 324.089844 C 700.421875 297.414062 728.167969 276.007812 751.585938 258.050781 C 756.824219 253.6875 762.09375 248.582031 763.878906 241.519531 C 766.597656 229.8125 757.117188 217.792969 745.523438 217.410156 C 730.253906 217.761719 716.523438 224.933594 702.609375 230.035156 C 682.4375 238.210938 662.460938 246.828125 642.476562 255.421875 C 613.394531 268.089844 583.976562 280.003906 554.363281 291.4375 C 540.269531 296.90625 530.515625 300.617188 521.484375 304.003906 C 518.84375 293.171875 516.445312 282.289062 514.335938 271.355469 C 508.351562 241.941406 502.671875 212.46875 495.40625 183.269531 C 486.183594 147.679688 476.039062 112.292969 467.632812 76.53125 C 464.679688 64.449219 461.480469 52.414062 457.898438 40.472656 C 457.710938 36.265625 457.523438 32.058594 457.335938 27.855469 C 456.71875 19.546875 454.234375 10.230469 446.78125 5.476562 C 438.515625 0.253906 427.488281 2.261719 423.007812 10.785156 C 420.566406 15.140625 420.417969 20.246094 420.070312 25.257812 C 420.023438 26.757812 420.023438 28.261719 420.003906 29.761719 C 415.546875 32.195312 412.265625 36.988281 412.097656 44.277344 C 406.375 133.28125 396.597656 221.660156 389.667969 310.476562 C 388.769531 321.984375 387.917969 333.5 387.09375 345.019531 C 369.203125 345.507812 351.324219 346.09375 333.464844 346.898438 C 263.699219 349.933594 194.234375 355.539062 124.496094 358.84375 C 101.050781 360.050781 76.730469 360.707031 64.648438 361.550781 C 50.457031 363.5625 43.597656 381.242188 54.265625 393.367188 C 58.042969 397.503906 63.425781 398.925781 68.335938 400.777344 C 75.214844 403.0625 82.105469 405.3125 88.976562 407.636719 C 107.828125 413.96875 126.648438 420.453125 145.457031 426.960938 C 211.75 449.796875 277.371094 475.253906 342.027344 503.589844 C 315.757812 574.183594 287.199219 642.585938 259.441406 717.84375 C 253.492188 733.949219 247.382812 749.984375 241.945312 766.324219 C 237.539062 778.488281 232.023438 796.027344 245.796875 805.210938 C 252.492188 809.539062 261.6875 808.910156 266.957031 803.464844 Z M 286.964844 384.839844 C 267.535156 388.160156 248.078125 391.4375 228.929688 395.925781 C 221.621094 397.585938 214.433594 399.640625 207.40625 402.160156 C 204.246094 403.359375 200.621094 403.683594 198.15625 406.167969 C 197.195312 406.796875 196.347656 407.550781 195.601562 408.394531 C 180.824219 403.054688 166.015625 397.808594 151.1875 392.632812 C 196.84375 390.144531 242.449219 387.1875 288.097656 384.648438 C 287.722656 384.710938 287.34375 384.773438 286.964844 384.839844 Z M 464.558594 281.1875 C 465.15625 282.679688 465.753906 284.167969 466.351562 285.660156 C 465.066406 282.390625 463.863281 279.054688 462.386719 275.867188 C 460.046875 267.808594 456.238281 261.167969 449.960938 257.839844 C 451.648438 249.140625 453.128906 240.386719 454.453125 231.597656 C 463 260.730469 472.230469 289.695312 481.605469 318.609375 C 480.859375 318.878906 480.113281 319.148438 479.371094 319.417969 C 477.597656 314.675781 475.847656 309.925781 474.058594 305.1875 C 470.882812 297.191406 467.808594 289.15625 464.558594 281.1875 Z M 257.132812 431.398438 C 260.792969 430.730469 264.449219 430.066406 268.105469 429.390625 C 269.367188 432.871094 271.566406 436.042969 274.421875 438.199219 C 268.667969 435.90625 262.902344 433.640625 257.132812 431.398438 Z M 632.472656 298.585938 C 640.890625 295.054688 649.28125 291.464844 657.664062 287.863281 C 650.285156 294.210938 642.953125 300.617188 635.664062 307.074219 C 630.214844 311.835938 624.808594 316.652344 619.398438 321.464844 C 616.96875 315.824219 612.441406 311.148438 606.726562 309.097656 C 615.328125 305.632812 623.914062 302.136719 632.472656 298.585938 Z M 330.148438 461.398438 C 314.703125 454.648438 299.179688 448.160156 283.59375 441.867188 C 290.230469 443.050781 297.246094 441.964844 303.769531 441.800781 C 315.292969 440.976562 326.796875 440.023438 338.28125 438.960938 C 347.5 438.074219 356.722656 437.203125 365.9375 436.300781 C 365.117188 438.730469 364.296875 441.160156 363.46875 443.582031 C 360.710938 444.21875 357.992188 444.976562 355.929688 446.945312 C 348.265625 451.988281 347.847656 463.660156 353.222656 471.34375 C 345.554688 467.976562 337.863281 464.648438 330.148438 461.398438 Z M 559.3125 572.433594 C 554.660156 570.175781 549.96875 567.824219 545.207031 565.394531 C 549.832031 564.652344 553.453125 562.347656 555.929688 559.085938 C 557.058594 563.535156 558.1875 567.984375 559.3125 572.433594 Z M 501.296875 478.277344 C 502.453125 482.140625 503.632812 485.996094 504.8125 489.855469 C 501.695312 488.285156 498.527344 486.84375 495.316406 485.546875 C 497.59375 483.25 499.589844 480.675781 501.144531 477.804688 C 501.195312 477.960938 501.25 478.117188 501.296875 478.277344 Z M 446.457031 473.929688 C 446 474.5 445.542969 475.074219 445.089844 475.644531 C 443.777344 476.429688 442.507812 477.28125 441.339844 478.296875 C 438.785156 480.621094 437.128906 483.5625 436.285156 486.722656 C 435.78125 487.359375 435.277344 487.996094 434.773438 488.632812 C 424.097656 485.21875 413.402344 481.90625 402.65625 478.808594 C 399.613281 478.082031 396.277344 477.121094 392.820312 476.1875 C 406.234375 475 428.164062 474 446.457031 473.929688 Z M 483.917969 427.125 C 483.476562 427.675781 483.035156 428.226562 482.59375 428.777344 C 482.878906 427.234375 482.964844 425.648438 482.8125 424.035156 C 483.183594 425.0625 483.550781 426.097656 483.917969 427.125 Z M 373.519531 517.65625 C 382.636719 521.796875 392.070312 526.21875 401.789062 530.871094 C 399.667969 533.636719 397.527344 536.386719 395.417969 539.160156 C 371.207031 571.789062 348.5 605.632812 326.289062 639.84375 C 341.46875 601.074219 357.777344 559.910156 373.519531 517.65625 Z M 373.519531 517.65625 " fill-opacity="1" fill-rule="nonzero"/></svg>