<svg xmlns="http://www.w3.org/2000/svg" xmlns:xlink="http://www.w3.org/1999/xlink" width="1080" zoomAndPan="magnify" viewBox="0 0 810 809.999993" height="1080" preserveAspectRatio="xMidYMid meet" version="1.0"><path fill="#fef8e8" d="M 407.75 716.820312 C 407.625 715.824219 408.164062 715.144531 408.765625 714.425781 C 410.589844 712.273438 412.5 710.167969 414.105469 707.859375 C 415.363281 706.050781 416.390625 706.238281 418.109375 707.234375 C 438.457031 719.128906 458.820312 731.015625 479.257812 742.753906 C 486.675781 747.011719 494.363281 750.75 502.554688 753.402344 C 514.316406 757.207031 524.316406 754.398438 533.199219 746.054688 C 541.980469 737.808594 548.183594 727.929688 553.351562 717.132812 C 579.378906 662.816406 603.824219 607.796875 628.121094 552.703125 C 639.421875 527.070312 650.386719 501.292969 660.738281 475.265625 C 678.328125 431.058594 694.800781 386.460938 706.957031 340.386719 C 711.328125 323.820312 713.792969 306.886719 716.140625 289.949219 C 718.316406 274.246094 719.757812 258.46875 720.320312 242.636719 C 720.851562 227.425781 720.765625 212.226562 719.570312 197.03125 C 718.066406 177.828125 715.070312 158.914062 709.679688 140.40625 C 704.121094 121.320312 696.039062 103.488281 684.714844 87 C 674.542969 72.199219 660.277344 64.539062 643.445312 60.703125 C 623.636719 56.183594 604.175781 58.378906 585.082031 64.65625 C 559.140625 73.179688 537.167969 88.195312 517.46875 106.742188 C 492.640625 130.117188 473.140625 157.636719 456 186.90625 C 434.027344 224.421875 415.535156 263.65625 398.648438 303.667969 C 390.902344 322.019531 383.242188 340.402344 378.25 359.761719 C 377.847656 361.335938 377.292969 362.90625 376.597656 364.378906 C 374.367188 369.050781 369.34375 369.644531 365.914062 365.785156 C 363.347656 362.90625 362.605469 359.347656 362.027344 355.753906 C 361.730469 353.890625 361.046875 352.296875 360.007812 350.753906 C 340.96875 322.441406 317.171875 298.839844 289.1875 279.425781 C 269.898438 266.042969 249.066406 255.855469 226.324219 249.742188 C 210.910156 245.597656 195.25 243.515625 179.3125 244.429688 C 158.238281 245.636719 138.664062 251.644531 121.597656 264.386719 C 112.902344 270.878906 107.121094 279.964844 101.949219 289.324219 C 93.269531 305.054688 88.277344 322.011719 86.351562 339.84375 C 80.976562 389.441406 92.730469 435.207031 117.613281 477.949219 C 133.117188 504.585938 153.425781 527.25 176.195312 547.8125 C 178.121094 549.550781 178.683594 550.6875 177.066406 553.074219 C 173.550781 558.277344 170.398438 563.722656 167.179688 569.113281 C 166.320312 570.546875 165.765625 571.101562 164.183594 569.773438 C 131.488281 542.421875 102.988281 511.511719 82.871094 473.550781 C 70.121094 449.488281 61.5625 423.984375 57.3125 397.042969 C 54.878906 381.617188 53.664062 366.109375 54.167969 350.511719 C 55.136719 320.992188 60.550781 292.453125 74.347656 266.011719 C 91.007812 234.085938 116.527344 212.171875 150.222656 199.628906 C 172.417969 191.359375 195.40625 188.265625 218.914062 189.808594 C 274.523438 193.457031 317.078125 219.035156 346.101562 266.765625 C 356.933594 284.582031 363.929688 303.957031 369.03125 324.070312 C 369.320312 325.203125 369.4375 326.410156 370.28125 327.394531 C 371.050781 327.167969 370.996094 326.472656 371.113281 325.925781 C 378.75 288.746094 387.984375 251.980469 399.363281 215.757812 C 409.191406 184.480469 420.617188 153.84375 436.195312 124.882812 C 452.902344 93.820312 473.820312 66.191406 501.875 44.414062 C 528.527344 23.730469 558.351562 10.019531 591.734375 4.550781 C 617 0.417969 642.074219 1.410156 666.410156 9.871094 C 700.039062 21.554688 723.765625 44.234375 738.5625 76.449219 C 746.613281 93.972656 750.980469 112.492188 753.429688 131.546875 C 756.324219 154.046875 756.308594 176.628906 754.832031 199.183594 C 752.140625 240.328125 744.792969 280.769531 735.628906 320.90625 C 725.054688 367.226562 711.863281 412.816406 697.441406 458.0625 C 686.367188 492.808594 674.433594 527.25 661.769531 561.453125 C 649.609375 594.28125 636.980469 626.929688 624.058594 659.460938 C 611.835938 690.222656 599.941406 721.117188 586.617188 751.429688 C 581.160156 763.851562 575.433594 776.144531 567.875 787.484375 C 565.496094 791.058594 562.835938 794.410156 559.835938 797.484375 C 549.320312 808.234375 536.964844 809.628906 523.410156 804.496094 C 520.351562 803.34375 517.3125 802.078125 514.425781 800.550781 C 494.019531 789.722656 473.453125 779.226562 454.578125 765.71875 C 436.882812 753.058594 418.761719 740.984375 400.761719 728.761719 C 398.703125 727.367188 398.5625 726.484375 400.246094 724.738281 C 402.132812 722.78125 403.734375 720.535156 405.488281 718.445312 C 406.113281 717.703125 406.585938 716.710938 407.8125 716.765625 C 409.691406 718.792969 412.179688 719.964844 414.433594 721.445312 C 442.566406 739.9375 470.433594 758.820312 498.925781 776.761719 C 500.800781 777.9375 502.710938 778.882812 504.957031 779.125 C 512.507812 779.945312 521.953125 774.085938 525.09375 766.574219 C 524.238281 766.316406 523.503906 766.746094 522.722656 766.941406 C 517.730469 768.21875 512.6875 768.539062 507.570312 767.808594 C 497.789062 766.402344 488.84375 762.644531 480.214844 758.050781 C 456.847656 745.601562 434.324219 731.6875 411.382812 718.488281 C 410.230469 717.84375 409.246094 716.757812 407.75 716.820312 Z M 623.355469 45.304688 C 622.535156 44.929688 622.324219 44.789062 622.082031 44.726562 C 621.476562 44.546875 620.859375 44.382812 620.242188 44.242188 C 602.375 40.226562 584.457031 40.375 566.589844 44.019531 C 532.113281 51.054688 503.683594 68.648438 479.996094 94.292969 C 459.523438 116.460938 445.15625 142.425781 433.566406 170.035156 C 421.828125 198.003906 412.84375 226.917969 404.449219 256.027344 C 404.261719 256.691406 403.65625 257.359375 404.410156 258.226562 C 404.886719 257.257812 405.324219 256.371094 405.753906 255.480469 C 409.902344 246.878906 413.957031 238.230469 418.210938 229.679688 C 432.171875 201.625 447.136719 174.140625 465.109375 148.390625 C 482.882812 122.933594 503.03125 99.675781 527.894531 80.800781 C 548.898438 64.859375 571.871094 53.066406 597.890625 47.769531 C 606.085938 46.117188 614.371094 45.21875 623.355469 45.304688 Z M 739.6875 213.246094 C 739.960938 213.246094 740.238281 213.246094 740.511719 213.246094 C 741.519531 205.074219 742.058594 196.84375 742.324219 188.628906 C 742.929688 169.601562 742.875 150.578125 740.277344 131.648438 C 737.898438 114.253906 733.90625 97.304688 726.480469 81.332031 C 713.792969 54.046875 693.863281 34.269531 665.527344 23.449219 C 644.476562 15.410156 622.644531 13.894531 600.484375 16.507812 C 574.714844 19.550781 550.886719 28.332031 528.722656 41.734375 C 528.222656 42.027344 527.363281 42.097656 527.433594 43.019531 C 527.527344 43.035156 527.628906 43.089844 527.699219 43.058594 C 528.128906 42.910156 528.550781 42.761719 528.964844 42.574219 C 553.820312 31.273438 579.808594 26.40625 607.078125 28.910156 C 626.449219 30.6875 644.304688 36.921875 660.816406 47.175781 C 668.757812 52.105469 675.378906 58.679688 682.78125 64.257812 C 700.851562 77.890625 713.746094 95.386719 722.753906 115.945312 C 734.140625 141.925781 738.671875 169.335938 739.664062 197.460938 C 739.84375 202.722656 739.6875 207.988281 739.6875 213.246094 Z M 73.097656 308.449219 C 73.511719 307.550781 73.933594 306.664062 74.324219 305.757812 C 76.703125 300.25 79.246094 294.824219 82.132812 289.550781 C 91.28125 272.804688 105.023438 260.160156 119.390625 248.1875 C 143.195312 228.363281 171.28125 219.742188 201.761719 218.199219 C 226.84375 216.917969 250.8125 221.800781 273.605469 232.378906 C 297.921875 243.664062 318.484375 259.972656 336.429688 279.722656 C 337.476562 280.875 338.519531 282.023438 339.574219 283.175781 C 339.769531 282.382812 339.589844 281.882812 339.347656 281.421875 C 324.371094 252.664062 302.804688 230.5 273.425781 216.476562 C 248.246094 204.457031 221.496094 200.992188 193.882812 203.238281 C 173.214844 204.925781 153.660156 210.5 135.542969 220.695312 C 101.054688 240.101562 81.78125 270.472656 73.097656 308.449219 Z M 520.703125 789.070312 C 524.710938 791.207031 528.527344 792.640625 532.503906 793.664062 C 539.273438 795.410156 545.0625 793.726562 550.015625 788.828125 C 553.867188 785.019531 556.957031 780.636719 559.726562 776.019531 C 567.929688 762.324219 574.265625 747.714844 580.402344 733.027344 C 592.5625 703.921875 604.082031 674.546875 615.695312 645.21875 C 626.636719 617.585938 637.246094 589.820312 647.746094 562.015625 C 648.953125 558.816406 650.03125 555.578125 651.175781 552.359375 C 650.558594 552.664062 650.292969 553.105469 650.09375 553.582031 C 638.789062 579.625 627.207031 605.542969 615.03125 631.1875 C 601.335938 660.039062 587.476562 688.8125 571.152344 716.289062 C 563.304688 729.503906 555.054688 742.457031 547.722656 755.992188 C 540.90625 768.546875 533.488281 780.832031 520.703125 789.070312 Z M 199.992188 231.558594 C 255.898438 237.722656 300.246094 265.894531 339.316406 304.277344 C 339.222656 303.730469 339.027344 303.339844 338.769531 303.003906 C 322.171875 281.273438 302.578125 262.882812 278.574219 249.539062 C 254.136719 235.941406 227.992188 229.53125 199.992188 231.558594 Z M 199.992188 231.558594 " fill-opacity="1" fill-rule="nonzero"/><path fill="#fef8e8" d="M 297.875 585.710938 C 308.78125 585.96875 318.4375 589.375 327.476562 594.539062 C 336.921875 599.929688 347 602.882812 357.792969 603.789062 C 365.140625 604.40625 372.496094 605.058594 379.773438 606.324219 C 394.28125 608.851562 407.679688 614.140625 419.363281 623.171875 C 430.710938 631.945312 436.75 643.261719 433.621094 657.988281 C 430.984375 670.398438 423.878906 679.742188 413.054688 686.339844 C 404.378906 691.628906 394.707031 693.71875 384.898438 695.433594 C 376.191406 696.957031 367.480469 698.421875 358.800781 700.058594 C 352.167969 701.316406 346.859375 704.753906 342.863281 710.246094 C 337.871094 717.101562 335.066406 725.042969 331.617188 732.667969 C 326.3125 744.410156 319.839844 755.367188 309.410156 763.339844 C 298.796875 771.449219 287.183594 775.285156 274.21875 769.351562 C 264.976562 765.125 259.199219 757.464844 255.390625 748.246094 C 251.28125 738.300781 251.203125 728.207031 254.605469 718.054688 C 255.585938 715.121094 256.539062 712.148438 257.824219 709.339844 C 262.800781 698.476562 263.410156 687.277344 261.117188 675.671875 C 258.917969 664.507812 255.742188 653.433594 255.765625 641.992188 C 255.804688 621.261719 263.207031 603.757812 280.164062 591.050781 C 285.4375 587.105469 291.691406 585.804688 297.875 585.710938 Z M 297.875 585.710938 " fill-opacity="1" fill-rule="nonzero"/><path fill="#fef8e8" d="M 186.800781 585.429688 C 186.824219 581.675781 187.316406 577.988281 188.363281 574.375 C 192.519531 559.972656 205.652344 554.121094 219.117188 560.710938 C 227.03125 564.589844 233 570.640625 237.695312 577.972656 C 245.332031 589.898438 249.324219 602.804688 247.773438 617.109375 C 247.398438 620.582031 246.335938 623.863281 244.839844 627.023438 C 240.019531 637.203125 229.605469 641.414062 218.992188 637.539062 C 211.480469 634.792969 205.652344 629.863281 200.660156 623.773438 C 192.136719 613.328125 186.714844 598.398438 186.800781 585.429688 Z M 186.800781 585.429688 " fill-opacity="1" fill-rule="nonzero"/><path fill="#fef8e8" d="M 279.632812 576.234375 C 268.113281 575.59375 256.5 569.324219 246.703125 559.394531 C 240.121094 552.726562 235.230469 545.011719 233.839844 535.511719 C 231.898438 522.242188 240.042969 512.058594 253.472656 511.332031 C 266.988281 510.597656 278.300781 516.152344 288.265625 524.722656 C 295.425781 530.878906 300.980469 538.242188 303.710938 547.460938 C 303.765625 547.632812 303.820312 547.8125 303.875 547.984375 C 308.46875 563.996094 298.96875 576.46875 279.632812 576.234375 Z M 279.632812 576.234375 " fill-opacity="1" fill-rule="nonzero"/><path fill="#fef8e8" d="M 368.734375 593.789062 C 349.550781 593.632812 328.339844 578.613281 322.859375 561.289062 C 318.910156 548.824219 325.464844 537.890625 338.308594 535.675781 C 349.285156 533.78125 359.242188 536.945312 368.617188 542.3125 C 376.824219 547.007812 383.59375 553.261719 388.117188 561.703125 C 397.3125 578.847656 388.1875 593.945312 368.734375 593.789062 Z M 368.734375 593.789062 " fill-opacity="1" fill-rule="nonzero"/><path fill="#fef8e8" d="M 240.324219 694.804688 C 240.214844 700.550781 239.394531 706.285156 236.460938 711.515625 C 233.234375 717.273438 228 719.589844 221.90625 717.070312 C 201.816406 708.765625 188.773438 694.359375 185.15625 672.488281 C 183.886719 664.8125 185.242188 657.378906 190.03125 650.9375 C 196.527344 642.203125 206.675781 640.277344 215.894531 646.039062 C 222.484375 650.15625 227.070312 656.132812 230.832031 662.777344 C 236.4375 672.675781 240.066406 683.164062 240.324219 694.804688 Z M 240.324219 694.804688 " fill-opacity="1" fill-rule="nonzero"/></svg>