<svg xmlns="http://www.w3.org/2000/svg" xmlns:xlink="http://www.w3.org/1999/xlink" width="1080" zoomAndPan="magnify" viewBox="0 0 810 809.999993" height="1080" preserveAspectRatio="xMidYMid meet" version="1.0"><defs><clipPath id="b30ca37f02"><path d="M 157 299 L 319 299 L 319 449 L 157 449 Z M 157 299 " clip-rule="nonzero"/></clipPath><clipPath id="c7d460039f"><path d="M 93.167969 63.304688 L 806.441406 198.640625 L 693.753906 792.546875 L -19.523438 657.207031 Z M 93.167969 63.304688 " clip-rule="nonzero"/></clipPath><clipPath id="7c80dc3aa3"><path d="M 93.167969 63.304688 L 806.441406 198.640625 L 693.753906 792.546875 L -19.523438 657.207031 Z M 93.167969 63.304688 " clip-rule="nonzero"/></clipPath><clipPath id="91292b93c9"><path d="M 152 244 L 214 244 L 214 321 L 152 321 Z M 152 244 " clip-rule="nonzero"/></clipPath><clipPath id="d95cbec32e"><path d="M 93.167969 63.304688 L 806.441406 198.640625 L 693.753906 792.546875 L -19.523438 657.207031 Z M 93.167969 63.304688 " clip-rule="nonzero"/></clipPath><clipPath id="a03bf9609e"><path d="M 93.167969 63.304688 L 806.441406 198.640625 L 693.753906 792.546875 L -19.523438 657.207031 Z M 93.167969 63.304688 " clip-rule="nonzero"/></clipPath><clipPath id="5b494a0c50"><path d="M 216 198 L 286 198 L 286 283 L 216 283 Z M 216 198 " clip-rule="nonzero"/></clipPath><clipPath id="66dc360bd7"><path d="M 93.167969 63.304688 L 806.441406 198.640625 L 693.753906 792.546875 L -19.523438 657.207031 Z M 93.167969 63.304688 " clip-rule="nonzero"/></clipPath><clipPath id="d98720f7fd"><path d="M 93.167969 63.304688 L 806.441406 198.640625 L 693.753906 792.546875 L -19.523438 657.207031 Z M 93.167969 63.304688 " clip-rule="nonzero"/></clipPath><clipPath id="1e092966ed"><path d="M 317 307 L 387 307 L 387 378 L 317 378 Z M 317 307 " clip-rule="nonzero"/></clipPath><clipPath id="97cf49be58"><path d="M 93.167969 63.304688 L 806.441406 198.640625 L 693.753906 792.546875 L -19.523438 657.207031 Z M 93.167969 63.304688 " clip-rule="nonzero"/></clipPath><clipPath id="d0bdc01584"><path d="M 93.167969 63.304688 L 806.441406 198.640625 L 693.753906 792.546875 L -19.523438 657.207031 Z M 93.167969 63.304688 " clip-rule="nonzero"/></clipPath><clipPath id="1e98325175"><path d="M 291 226 L 364 226 L 364 308 L 291 308 Z M 291 226 " clip-rule="nonzero"/></clipPath><clipPath id="9a89dd230a"><path d="M 93.167969 63.304688 L 806.441406 198.640625 L 693.753906 792.546875 L -19.523438 657.207031 Z M 93.167969 63.304688 " clip-rule="nonzero"/></clipPath><clipPath id="5987ba8391"><path d="M 93.167969 63.304688 L 806.441406 198.640625 L 693.753906 792.546875 L -19.523438 657.207031 Z M 93.167969 63.304688 " clip-rule="nonzero"/></clipPath><clipPath id="8c7b4b5712"><path d="M 147 181 L 786 181 L 786 691 L 147 691 Z M 147 181 " clip-rule="nonzero"/></clipPath><clipPath id="3b8169d23e"><path d="M 93.167969 63.304688 L 806.441406 198.640625 L 693.753906 792.546875 L -19.523438 657.207031 Z M 93.167969 63.304688 " clip-rule="nonzero"/></clipPath><clipPath id="4810675eab"><path d="M 93.167969 63.304688 L 806.441406 198.640625 L 693.753906 792.546875 L -19.523438 657.207031 Z M 93.167969 63.304688 " clip-rule="nonzero"/></clipPath><clipPath id="27563c0086"><path d="M 64 104 L 528 104 L 528 536 L 64 536 Z M 64 104 " clip-rule="nonzero"/></clipPath><clipPath id="3b1223ea0e"><path d="M 93.167969 63.304688 L 806.441406 198.640625 L 693.753906 792.546875 L -19.523438 657.207031 Z M 93.167969 63.304688 " clip-rule="nonzero"/></clipPath><clipPath id="8021e6ccee"><path d="M 93.167969 63.304688 L 806.441406 198.640625 L 693.753906 792.546875 L -19.523438 657.207031 Z M 93.167969 63.304688 " clip-rule="nonzero"/></clipPath></defs><g clip-path="url(#b30ca37f02)"><g clip-path="url(#c7d460039f)"><g clip-path="url(#7c80dc3aa3)"><path fill="#76519f" d="M 271.023438 447.214844 C 271.882812 447.453125 272.765625 447.652344 273.644531 447.816406 C 285.019531 449.976562 297.152344 446.4375 305.851562 438.261719 C 315.113281 429.570312 319.621094 416.394531 317.640625 403.875 C 316.148438 394.492188 311.355469 386.777344 307.121094 379.953125 C 304.113281 375.117188 301.28125 370.550781 299.753906 365.816406 C 298.082031 360.609375 297.820312 354.628906 297.53125 348.316406 C 297.40625 345.675781 297.285156 342.949219 297.066406 340.199219 C 295.070312 316.246094 279.878906 303.777344 267.488281 300.386719 C 254.632812 296.847656 240.253906 301.03125 229.015625 311.53125 C 225.636719 314.683594 222.617188 318.0625 219.695312 321.328125 C 215.1875 326.359375 210.925781 331.125 205.992188 334.410156 C 201.925781 337.117188 197.082031 339.066406 191.933594 341.121094 C 183.875 344.347656 174.738281 348.011719 167.671875 355.46875 C 159.253906 364.351562 155.476562 377.296875 157.8125 389.257812 C 160.191406 401.394531 168.648438 411.679688 179.90625 416.105469 C 189.640625 419.941406 199.828125 418.992188 208.796875 418.167969 C 216.121094 417.492188 223.050781 416.84375 228.789062 418.71875 C 234.835938 420.683594 240.203125 425.628906 245.894531 430.871094 C 252.75 437.207031 260.546875 444.382812 271.023438 447.214844 Z M 229.34375 400.824219 C 221.726562 399.378906 214.054688 400.09375 207.15625 400.730469 C 199.4375 401.453125 192.148438 402.121094 186.296875 399.820312 C 180.640625 397.589844 176.191406 392.136719 174.980469 385.902344 C 173.726562 379.507812 175.835938 372.300781 180.351562 367.539062 C 184.777344 362.863281 191.402344 360.226562 198.414062 357.410156 C 204.160156 355.109375 210.109375 352.730469 215.675781 349.015625 C 222.464844 344.492188 227.671875 338.671875 232.722656 333.046875 C 235.515625 329.917969 238.152344 326.984375 240.972656 324.355469 C 247.636719 318.128906 256.011719 315.4375 262.851562 317.300781 C 277.742188 321.386719 279.535156 340.84375 279.601562 341.671875 C 279.800781 344.074219 279.917969 346.519531 280.023438 349.097656 C 280.335938 356.289062 280.675781 363.742188 283.070312 371.183594 C 285.246094 377.972656 288.796875 383.683594 292.222656 389.210938 C 295.914062 395.144531 299.386719 400.738281 300.320312 406.621094 C 301.378906 413.273438 298.777344 420.867188 293.84375 425.488281 C 288.941406 430.089844 281.785156 432 275.601562 430.292969 C 269.269531 428.570312 263.675781 423.421875 257.753906 417.972656 C 251.25 411.980469 243.871094 405.1875 234.199219 402.042969 C 232.585938 401.527344 230.964844 401.132812 229.34375 400.824219 Z M 229.34375 400.824219 " fill-opacity="1" fill-rule="nonzero"/></g></g></g><g clip-path="url(#91292b93c9)"><g clip-path="url(#d95cbec32e)"><g clip-path="url(#a03bf9609e)"><path fill="#76519f" d="M 183.964844 320.285156 C 190.613281 320.96875 197.078125 318.714844 202.160156 313.941406 C 209.941406 306.605469 214.046875 293.902344 213.414062 279.066406 C 212.835938 265.59375 206.964844 254.148438 197.695312 248.46875 C 187.488281 242.191406 173.269531 244.027344 163.902344 252.832031 C 156.011719 260.253906 151.890625 271.777344 152.890625 283.667969 C 154.640625 304.453125 168.722656 317.511719 181.863281 320.007812 C 182.558594 320.109375 183.265625 320.214844 183.964844 320.285156 Z M 170.34375 282.175781 C 169.792969 275.679688 171.917969 269.320312 175.898438 265.585938 C 178.699219 262.96875 182.667969 261.789062 185.941406 262.410156 C 186.871094 262.585938 187.75 262.902344 188.519531 263.386719 C 192.6875 265.949219 195.59375 272.402344 195.910156 279.820312 C 196.394531 291.132812 193.257812 298.265625 190.160156 301.1875 C 188.332031 302.90625 186.789062 302.972656 185.785156 302.867188 C 177.5 302.027344 171.121094 291.464844 170.34375 282.175781 Z M 170.34375 282.175781 " fill-opacity="1" fill-rule="nonzero"/></g></g></g><g clip-path="url(#5b494a0c50)"><g clip-path="url(#66dc360bd7)"><g clip-path="url(#d98720f7fd)"><path fill="#76519f" d="M 239.152344 280.738281 C 240.820312 281.441406 242.519531 281.957031 244.242188 282.285156 C 249.664062 283.3125 255.304688 282.496094 260.558594 279.867188 C 271.167969 274.566406 279.535156 262.359375 283.519531 246.363281 C 287.144531 231.816406 284.453125 217.71875 276.300781 208.652344 C 267.441406 198.796875 251.777344 196.105469 239.0625 202.253906 C 228.164062 207.53125 220.054688 218.460938 217.382812 231.511719 C 212.457031 255.445312 224.921875 274.738281 239.152344 280.738281 Z M 246.695312 218.046875 C 252.355469 215.316406 259.636719 216.339844 263.269531 220.390625 C 268.277344 225.949219 268.234375 235.273438 266.515625 242.128906 C 263.335938 254.902344 257.296875 261.902344 252.726562 264.199219 C 250.347656 265.382812 248.136719 265.515625 245.960938 264.597656 C 236.027344 260.394531 232.292969 245.996094 234.535156 235.046875 C 236.101562 227.421875 240.753906 220.917969 246.695312 218.046875 Z M 246.695312 218.046875 " fill-opacity="1" fill-rule="nonzero"/></g></g></g><g clip-path="url(#1e092966ed)"><g clip-path="url(#97cf49be58)"><g clip-path="url(#d0bdc01584)"><path fill="#76519f" d="M 330.96875 321.648438 C 321.003906 332.644531 316.023438 345.03125 317.308594 355.636719 C 318.152344 362.558594 321.675781 368.429688 327.222656 372.171875 C 330.660156 374.488281 334.355469 375.933594 338.160156 376.65625 C 351.285156 379.148438 365.625 372.980469 374.554688 363.925781 C 382.914062 355.433594 387.128906 343.941406 385.796875 333.179688 C 384.21875 320.425781 374.476562 309.894531 362.625 308.195312 C 351.863281 306.628906 340.027344 311.667969 330.96875 321.648438 Z M 343.957031 333.414062 C 348.9375 327.925781 355.277344 324.832031 360.121094 325.527344 C 364.171875 326.132812 367.816406 330.40625 368.417969 335.308594 C 369.089844 340.710938 366.652344 346.96875 362.085938 351.617188 C 355.546875 358.253906 343.90625 362.257812 337.011719 357.636719 C 336.167969 357.074219 335.011719 356.023438 334.714844 353.527344 C 334.195312 349.296875 336.359375 341.800781 343.957031 333.414062 Z M 343.957031 333.414062 " fill-opacity="1" fill-rule="nonzero"/></g></g></g><g clip-path="url(#1e98325175)"><g clip-path="url(#9a89dd230a)"><g clip-path="url(#5987ba8391)"><path fill="#76519f" d="M 310.113281 306.4375 C 311.097656 306.742188 312.121094 306.980469 313.15625 307.179688 C 327.761719 309.949219 347.5625 302.648438 358.316406 282.554688 C 364.601562 270.816406 365.367188 257.226562 360.355469 246.199219 C 354.515625 233.332031 340.761719 225.371094 327.648438 227.269531 C 315.589844 229.007812 304.5 238.113281 297.980469 251.621094 C 290.824219 266.464844 289.457031 281.203125 294.21875 292.066406 C 297.328125 299.167969 302.976562 304.265625 310.113281 306.4375 Z M 313.765625 259.238281 C 316.832031 252.863281 322.757812 245.679688 330.15625 244.613281 C 335.535156 243.835938 341.800781 247.714844 344.398438 253.441406 C 347.125 259.445312 346.53125 267.433594 342.863281 274.300781 C 337.59375 284.136719 325.542969 292.804688 315.210938 289.6875 C 312.949219 289.003906 311.335938 287.480469 310.265625 285.046875 C 308.214844 280.347656 308.050781 271.101562 313.765625 259.238281 Z M 313.765625 259.238281 " fill-opacity="1" fill-rule="nonzero"/></g></g></g><g clip-path="url(#8c7b4b5712)"><g clip-path="url(#3b8169d23e)"><g clip-path="url(#4810675eab)"><path fill="#76519f" d="M 717.214844 187.058594 C 700.050781 178.734375 686.28125 179.390625 676.28125 188.996094 C 672.992188 192.164062 670.421875 196.222656 668.859375 200.773438 C 665.308594 211.113281 666.488281 222.664062 672.460938 236.089844 C 673.167969 237.683594 674.046875 239.394531 675.058594 241.191406 L 644.441406 260.992188 C 643.558594 261.570312 642.828125 262.292969 642.230469 263.085938 L 602.484375 217.179688 C 600.082031 214.40625 596.210938 213.417969 592.785156 214.714844 C 574.636719 221.527344 567.234375 242.375 569.933594 259.9375 C 564.453125 263.371094 559.84375 266.582031 554.996094 269.960938 C 550.664062 272.988281 546.171875 276.121094 540.863281 279.511719 C 536.785156 282.113281 535.59375 287.535156 538.195312 291.609375 C 539.546875 293.726562 541.65625 295.0625 543.953125 295.496094 C 546.078125 295.898438 548.347656 295.527344 550.3125 294.265625 C 555.910156 290.691406 560.539062 287.449219 565.027344 284.320312 C 568.933594 281.597656 572.683594 278.980469 576.816406 276.316406 C 588.261719 295.582031 612.554688 326.976562 630.382812 348.089844 C 649.910156 371.222656 666.738281 388.835938 680.789062 400.878906 C 659.03125 418.808594 638.320312 436.152344 618.296875 452.921875 C 609.40625 460.363281 600.675781 467.683594 592.089844 474.855469 C 592.375 472.5 591.699219 470.023438 590.027344 468.101562 C 580.871094 457.535156 572.269531 446.300781 564.460938 434.726562 C 561.757812 430.722656 556.3125 429.65625 552.292969 432.359375 C 548.285156 435.0625 547.222656 440.507812 549.921875 444.527344 C 558.125 456.683594 567.15625 468.472656 576.777344 479.574219 C 578.117188 481.121094 579.894531 482.097656 581.761719 482.453125 C 582.121094 482.519531 582.46875 482.558594 582.835938 482.582031 C 564.253906 498.023438 546.453125 512.632812 529.515625 525.992188 C 513.476562 508.070312 498.355469 489.117188 484.566406 469.585938 C 481.777344 465.636719 476.308594 464.6875 472.363281 467.476562 C 468.414062 470.265625 467.464844 475.734375 470.253906 479.683594 C 484.210938 499.4375 499.476562 518.628906 515.679688 536.789062 C 494.773438 552.890625 475.320312 566.8125 457.511719 577.777344 C 457.253906 577.339844 456.964844 576.914062 456.609375 576.519531 C 447.449219 565.953125 438.847656 554.71875 431.042969 543.144531 C 428.339844 539.136719 422.890625 538.074219 418.871094 540.777344 C 414.867188 543.480469 413.800781 548.925781 416.503906 552.945312 C 424.378906 564.621094 433.039062 575.941406 442.226562 586.664062 C 412.671875 602.757812 388.410156 608.945312 370.566406 600.832031 C 353.175781 592.925781 311.957031 546.324219 303.574219 516.148438 C 302.273438 511.488281 297.441406 508.757812 292.78125 510.058594 C 288.117188 511.359375 285.386719 516.191406 286.6875 520.851562 C 286.796875 521.230469 286.929688 521.628906 287.035156 522.003906 C 272.824219 531.496094 250.367188 547.851562 257.3125 569.058594 C 259.933594 577.03125 265.242188 585.632812 271.582031 594.121094 C 271.484375 594.175781 271.390625 594.203125 271.304688 594.261719 C 230.632812 619.585938 190.234375 646.511719 151.242188 674.265625 C 147.304688 677.074219 146.371094 682.542969 149.191406 686.484375 C 150.550781 688.40625 152.554688 689.601562 154.691406 690.007812 C 156.957031 690.4375 159.378906 689.976562 161.40625 688.53125 C 200.105469 660.988281 240.195312 634.273438 280.566406 609.128906 C 281.277344 608.683594 281.871094 608.128906 282.414062 607.53125 C 284.242188 609.664062 286.074219 611.765625 287.886719 613.804688 C 295.28125 622.148438 306.371094 634.671875 321.78125 637.59375 C 322.066406 637.648438 322.355469 637.703125 322.644531 637.746094 C 343.027344 641.09375 355.589844 629.949219 367.382812 618.40625 C 370.34375 619.488281 373.375 620.347656 376.519531 620.945312 C 401.355469 625.65625 432.347656 615.066406 474.488281 587.894531 C 517.828125 559.9375 569.609375 516.566406 629.558594 466.34375 C 649.6875 449.484375 670.507812 432.046875 692.355469 414.042969 C 693.253906 413.292969 693.972656 412.402344 694.5 411.433594 C 701.433594 416.09375 707.449219 418.929688 712.5 419.886719 C 713.503906 420.078125 714.464844 420.199219 715.390625 420.242188 C 732.464844 421.058594 748.117188 410.324219 751.792969 395.253906 C 752.464844 392.496094 751.769531 389.585938 749.902344 387.429688 L 702.027344 332.121094 C 712.003906 322.226562 722.976562 313.292969 734.679688 305.511719 C 735.1875 305.175781 735.648438 304.789062 736.054688 304.375 C 743.625 309.289062 751.371094 313.105469 758.546875 314.46875 C 760.828125 314.902344 763.050781 315.085938 765.195312 314.988281 C 774.03125 314.550781 780.792969 309.25 783.730469 300.414062 C 791.257812 277.820312 776.25 249.839844 766.632812 235.1875 C 752.507812 213.65625 733.113281 194.773438 717.214844 187.058594 Z M 325.480469 620.445312 C 316.488281 618.949219 309.082031 611.300781 301.003906 602.171875 C 294.761719 595.113281 278.171875 576.390625 273.972656 563.582031 C 271.941406 557.371094 277.933594 549.765625 293.792969 538.640625 C 307.203125 565.429688 332.726562 594.78125 351.554688 609.296875 C 342.496094 617.730469 335.640625 622.121094 325.480469 620.445312 Z M 716.230469 402.742188 C 709.78125 402.414062 687.3125 388.277344 644.144531 337.21875 C 612.765625 300.09375 589.34375 265.671875 587.640625 259.222656 C 585.632812 250.609375 587.859375 239.882812 594.027344 234.171875 L 733.105469 394.8125 C 729.898438 399.71875 723.136719 403.074219 716.230469 402.742188 Z M 690.527344 318.847656 L 653.414062 275.984375 C 653.597656 275.886719 653.789062 275.816406 653.957031 275.703125 L 684.878906 255.703125 C 692.210938 265.253906 701.65625 275.640625 711.777344 285.035156 C 714.734375 287.78125 717.941406 290.621094 721.308594 293.414062 C 710.355469 301 700.042969 309.519531 690.527344 318.847656 Z M 767.109375 294.882812 C 766.273438 297.398438 765.507812 297.433594 764.339844 297.492188 C 758.457031 297.773438 744.296875 291.324219 723.710938 272.199219 C 707.675781 257.296875 693.183594 239.515625 688.46875 228.960938 C 684.316406 219.65625 683.355469 212.515625 685.4375 206.476562 C 686.097656 204.550781 687.128906 202.886719 688.417969 201.644531 C 690.402344 199.734375 693.375 198.007812 699.230469 199.117188 C 701.984375 199.640625 705.363281 200.789062 709.566406 202.835938 C 722.609375 209.160156 739.652344 226.023438 751.964844 244.800781 C 765.195312 264.9375 770.84375 283.652344 767.109375 294.882812 Z M 767.109375 294.882812 " fill-opacity="1" fill-rule="nonzero"/></g></g></g><g clip-path="url(#27563c0086)"><g clip-path="url(#3b1223ea0e)"><g clip-path="url(#8021e6ccee)"><path fill="#76519f" d="M 214.6875 535.179688 C 216.210938 535.46875 217.804688 535.355469 219.320312 534.8125 C 316.769531 499.328125 395.257812 452.921875 459.277344 392.917969 C 477.339844 375.996094 499.863281 352.859375 513.871094 323.917969 C 528.519531 293.652344 531.234375 261.007812 521.316406 234.316406 C 513.925781 214.421875 499.417969 197.355469 479.367188 184.960938 C 461.410156 173.851562 439.398438 166.941406 417.371094 165.453125 C 389.089844 163.550781 360.507812 169.023438 334.738281 181.285156 C 329.070312 183.984375 325.667969 184.992188 324.625 184.300781 C 323.859375 183.785156 322.691406 181.332031 321.914062 179.699219 L 321.679688 179.210938 C 300.949219 135.542969 254.804688 105.578125 206.820312 104.648438 C 158.894531 103.730469 111.140625 131.828125 88 174.589844 C 63.507812 219.839844 58.210938 279.808594 73.488281 339.117188 C 92.035156 411.144531 139.582031 478.375 210.960938 533.523438 C 212.078125 534.359375 213.355469 534.929688 214.6875 535.179688 Z M 90.460938 334.742188 C 76.285156 279.65625 81.003906 224.320312 103.425781 182.910156 C 123.539062 145.777344 164.960938 121.351562 206.503906 122.15625 C 212.425781 122.269531 218.328125 122.898438 224.125 124 C 258.945312 130.605469 290.496094 154.296875 305.871094 186.703125 L 306.09375 187.175781 C 307.792969 190.753906 310.101562 195.667969 314.917969 198.871094 C 324.773438 205.4375 336.164062 200.019531 342.289062 197.105469 C 365.347656 186.128906 390.921875 181.230469 416.207031 182.933594 C 450.582031 185.238281 491.332031 203.921875 504.90625 240.417969 C 513.160156 262.644531 510.691406 290.300781 498.109375 316.273438 C 485.351562 342.617188 464.261719 364.226562 447.304688 380.121094 C 386.046875 437.542969 310.960938 482.234375 217.886719 516.671875 C 151.726562 464.507812 107.714844 401.675781 90.460938 334.742188 Z M 90.460938 334.742188 " fill-opacity="1" fill-rule="nonzero"/></g></g></g></svg>