<?xml version="1.0" encoding="UTF-8"?>
<svg id="Layer_1" data-name="Layer 1" xmlns="http://www.w3.org/2000/svg" viewBox="0 0 232.01 284.1">
  <defs>
    <style>
      .cls-1 {
        fill: #fff8e9;
      }
    </style>
  </defs>
  <path class="cls-1" d="M163.97,66.27c-30.02-15.01-65.43-4.69-75.28,28.85-2.58,8.68-5.39,19.46-7.97,30.72-3.52-.7-6.8-1.17-8.44-1.17-6.1-.7-13.37,2.35-16.88,7.5-2.58,3.99-3.99,9.15-3.99,13.84,0,5.16,1.17,11.02,4.69,15.01,2.35,2.81,6.33,4.22,10.08,4.69,1.17,0,4.22.24,7.27.47-3.52,22.98-5.16,44.56-2.81,56.99.47,2.11.94,3.99,2.11,5.86,1.88,3.05,4.92,5.39,8.21,6.8,5.63,2.11,11.73,3.05,17.59,3.05,3.05,0,6.1-.7,8.91-1.88,2.81-1.64,5.16-3.75,6.8-6.57,2.11-3.52,2.58-7.97,2.81-11.96,1.17-16.18,3.05-33.77,5.63-51.13,3.99.7,8.44,1.64,9.85,1.88,4.69.47,22.98,1.64,27.67.24,4.22-1.41,8.21-4.93,10.32-8.91,1.64-3.05,2.11-7.04,1.88-10.55,0-3.52-.24-6.8-1.41-9.85-3.05-9.85-20.87-9.15-30.96-8.91-1.88,0-7.5,0-11.96-.24.47-3.75,1.17-7.04,1.64-10.55,3.05-19.46,14.54-8.44,29.78-5.86,6.8,1.41,13.84-1.64,17.35-7.27,4.46-6.8,6.1-22.04,2.11-28.85-3.28-5.63-9.38-9.38-15.01-12.19Z"/>
</svg>