<?xml version="1.0" encoding="UTF-8"?>
<svg id="Layer_1" data-name="Layer 1" xmlns="http://www.w3.org/2000/svg" viewBox="0 0 211.44 278.76">
  <defs>
    <style>
      .cls-1 {
        fill: #fff8e9;
      }
    </style>
  </defs>
  <path class="cls-1" d="M147.38,109.51c-.7-5.39-1.64-10.79-2.58-15.95-.94-7.97-2.58-16.42-7.5-22.98-6.57-8.68-23.45-7.97-33.54-3.75-4.46,1.88-8.68,4.69-11.26,8.68-3.05,5.16-3.28,11.73-2.35,17.59,3.28,20.64,14.07,39.87,16.65,60.74-6.8-3.28-18.53-5.63-23.45-5.86-37.05-1.41-55.35,38.93-37.99,69.18,2.81,4.46,5.86,8.68,9.85,12.43,6.33,5.86,14.07,10.32,22.04,13.13,6.57,2.35,13.6,3.05,20.4,3.05,9.15,0,18.53-1.41,27.2-4.22,28.14-8.44,31.89-39.16,31.19-64.49-.94-22.51-4.92-45.03-8.68-67.54ZM85.47,200.5c-5.63-4.93-3.28-15.24,3.75-17.59,9.62-3.28,21.11,2.11,21.81,11.96,1.41,14.31-17.82,13.13-25.56,5.63Z"/>
</svg>