<?xml version="1.0" encoding="UTF-8"?>
<svg xmlns="http://www.w3.org/2000/svg" viewBox="0 0 150 110">
  <path fill="#3bbca8" d="M140.78,40.74c-.86-5.15-2-10.44-4.58-14.87-5.72-10.01-26.88-8.01-25.74,5.72,1.14,12.87,7.72,28.17,0,42.61-4,7.72-17.13,3.46-21.28-12.99-.87-3.23-1.25-6.57-1.51-9.9-.13-1.68-.22-3.36-.32-5.04-.09-1.58-.4-3.26-.31-4.83,0-.04.01-.09.02-.13.02-.07.03-.13.06-.19,3.14-5.28,15.19-11.13,15.02-15.63-.26-6.71-6.86-10.79-14.68-12.19-11.8-2.36-27.22,1.75-27.61,12.08-.17,4.5,11.87,10.35,15.02,15.63.19.31.24.7.18,1.06-2.52,16.06-3.66,15.9-6.5,23.69-3.43,9.87-24.05,10.99-22.34.55.57-3.15,5.86-21.02,5.86-24.16.14-6-1.43-11.87-7.15-14.15-14.58-5.86-12.8,9.02-13.95,21.18-2,14.44-3.57,29.74,1,43.61,1.43,4.29,3.43,8.58,6.43,11.72,2.43,2.72,5.86,4.72,9.29,5.15,3,.43,6.15.29,8.72-1,5.86-2.86,10.29-9.15,13.01-15.44,1.29-2.72,5.15-13.15,7.29-20.02,2.29,7.15,3.86,14.58,7.58,21.02,3.43,6,8.86,11.58,15.16,13.3,4.86,1.29,10.15,1.86,15.01.43,2.86-.71,5.43-2.72,7.72-4.72,4.29-4,7.58-9.29,10.15-14.73,3.57-7.43,6.01-15.58,7.58-23.88,1.29-7.86,2-16.01.86-23.88Z"/>
</svg>
