<?xml version="1.0" encoding="UTF-8"?>
<svg id="Layer_1" data-name="Layer 1" xmlns="http://www.w3.org/2000/svg" viewBox="0 0 1920 1080">
  <defs>
    <style>
      .cls-1 {
        fill: #fff8e9;
      }
    </style>
  </defs>
  <path class="cls-1" d="M473.84,521.63c-1.41-8.44-3.28-17.12-7.5-24.39-9.38-16.42-44.09-13.13-42.21,9.38,1.88,21.11,12.66,46.2,0,69.89-6.57,12.66-28.1,5.67-34.91-21.3-1.42-5.3-2.06-10.77-2.47-16.23-.21-2.75-.36-5.51-.52-8.27-.15-2.59-.66-5.35-.51-7.93,0-.07.02-.14.03-.21.03-.11.05-.22.1-.31,5.16-8.66,24.91-18.26,24.63-25.64-.42-11.01-11.25-17.7-24.08-19.99-19.36-3.87-44.64,2.87-45.29,19.81-.28,7.38,19.47,16.98,24.63,25.64.31.52.39,1.15.29,1.74-4.14,26.35-6,26.07-10.67,38.86-5.63,16.18-39.45,18.02-36.64.9.94-5.16,9.61-34.47,9.61-39.63.23-9.85-2.35-19.46-11.73-23.22-23.92-9.61-21,14.8-22.88,34.73-3.28,23.69-5.86,48.78,1.64,71.53,2.35,7.04,5.63,14.07,10.55,19.23,3.99,4.45,9.61,7.74,15.24,8.44,4.93.7,10.08.47,14.31-1.64,9.61-4.69,16.88-15.01,21.34-25.33,2.11-4.46,8.44-21.58,11.96-32.83,3.75,11.73,6.33,23.92,12.43,34.47,5.63,9.85,14.54,19,24.86,21.81,7.97,2.11,16.65,3.05,24.62.7,4.69-1.17,8.91-4.45,12.66-7.74,7.04-6.57,12.43-15.24,16.65-24.16,5.86-12.19,9.85-25.56,12.43-39.16,2.11-12.9,3.28-26.26,1.41-39.16Z"/>
  <path class="cls-1" d="M540.92,494.42c-.23.47-.47.94-.7,1.41,0,.7-1.17.47-1.88.7-31.42,5.16-48.78,38.69-51.12,67.54-.94,11.26.47,23.22,5.39,33.07,9.85,19.23,31.43,29.78,52.06,29.78,57.69,0,73.4-52.53,63.55-99.43-6.1-29.08-45.03-65.2-67.31-33.07ZM541.63,583.31c-32.36-4.92-10.32-56.05,16.42-58.39,19.7,12.66,15.48,63.08-16.42,58.39Z"/>
  <path class="cls-1" d="M676.95,494.42c-.23.47-.47.94-.7,1.41,0,.7-1.17.47-1.88.7-31.42,5.16-48.78,38.69-51.12,67.54-.94,11.26.47,23.22,5.39,33.07,9.85,19.23,31.43,29.78,52.06,29.78,57.69,0,73.4-52.53,63.55-99.43-6.1-29.08-45.03-65.2-67.31-33.07ZM677.65,583.31c-32.36-4.92-10.32-56.05,16.42-58.39,19.7,12.66,15.48,63.08-16.42,58.39Z"/>
  <path class="cls-1" d="M869.96,476.37c-30.02-15.01-65.43-4.69-75.28,28.85-2.58,8.68-5.39,19.46-7.97,30.72-3.52-.7-6.8-1.17-8.44-1.17-6.1-.7-13.37,2.35-16.88,7.5-2.58,3.99-3.99,9.15-3.99,13.84,0,5.16,1.17,11.02,4.69,15.01,2.35,2.81,6.33,4.22,10.08,4.69,1.17,0,4.22.24,7.27.47-3.52,22.98-5.16,44.56-2.81,56.99.47,2.11.94,3.99,2.11,5.86,1.88,3.05,4.92,5.39,8.21,6.8,5.63,2.11,11.73,3.05,17.59,3.05,3.05,0,6.1-.7,8.91-1.88,2.81-1.64,5.16-3.75,6.8-6.57,2.11-3.52,2.58-7.97,2.81-11.96,1.17-16.18,3.05-33.77,5.63-51.13,3.99.7,8.44,1.64,9.85,1.88,4.69.47,22.98,1.64,27.67.24,4.22-1.41,8.21-4.93,10.32-8.91,1.64-3.05,2.11-7.04,1.88-10.55,0-3.52-.24-6.8-1.41-9.85-3.05-9.85-20.87-9.15-30.96-8.91-1.88,0-7.5,0-11.96-.24.47-3.75,1.17-7.04,1.64-10.55,3.05-19.46,14.54-8.44,29.78-5.86,6.8,1.41,13.84-1.64,17.35-7.27,4.46-6.8,6.1-22.04,2.11-28.85-3.28-5.63-9.38-9.38-15.01-12.19Z"/>
  <path class="cls-1" d="M1046.79,590.58c-4.69-3.75-10.32-5.39-15.71-7.5-5.16-2.35-10.32-5.16-15.01-9.15-7.27-6.1-10.55-18.76-5.86-27.91,2.11-4.22,5.63-7.74,7.5-12.19,2.11-5.39,3.05-11.96,1.88-17.82-.94-4.69-4.46-8.68-7.74-11.96-31.19-31.43-82.32-15.24-100.61,29.31-11.49,27.91-24.62,71.06,4.45,90.99,8.44,5.86,19.7,7.04,29.08,3.75,7.27-2.35,14.3-6.33,20.64-11.02,3.52-2.58,6.33-6.1,9.38-9.15.94-.94,3.05-3.05,3.99-2.81,1.64.24,4.69,4.93,5.86,6.33,5.16,6.8,11.96,12.43,19.23,15.71,7.04,3.28,14.78,5.63,22.51,5.16,6.57-.23,13.84-3.05,18.29-8.91,3.99-4.93,5.63-12.66,6.1-19.47.24-2.35.24-4.69-.23-7.04-.47-2.58-1.88-4.93-3.75-6.33ZM972.45,553.76c-15.01,33.54-43.85,44.79-31.43-.7,2.11-7.74,5.63-15.71,10.79-21.34,17.82-18.76,28.14,5.16,20.64,22.04Z"/>
  <path class="cls-1" d="M1167.57,500.52c-.7-5.39-1.64-10.79-2.58-15.95-.94-7.97-2.58-16.42-7.5-22.98-6.57-8.68-23.45-7.97-33.54-3.75-4.46,1.88-8.68,4.69-11.26,8.68-3.05,5.16-3.28,11.73-2.35,17.59,3.28,20.64,14.07,39.87,16.65,60.74-6.8-3.28-18.53-5.63-23.45-5.86-37.05-1.41-55.35,38.93-37.99,69.18,2.81,4.46,5.86,8.68,9.85,12.43,6.33,5.86,14.07,10.32,22.04,13.13,6.57,2.35,13.6,3.05,20.4,3.05,9.15,0,18.53-1.41,27.2-4.22,28.14-8.44,31.89-39.16,31.19-64.49-.94-22.51-4.92-45.03-8.68-67.54ZM1105.66,591.51c-5.63-4.93-3.28-15.24,3.75-17.59,9.62-3.28,21.11,2.11,21.81,11.96,1.41,14.31-17.82,13.13-25.56,5.63Z"/>
  <path class="cls-1" d="M1339.24,590.58c-4.69-3.75-10.32-5.39-15.71-7.5-5.16-2.35-10.32-5.16-15.01-9.15-7.27-6.1-10.55-18.76-5.86-27.91,2.11-4.22,5.63-7.74,7.5-12.19,2.11-5.39,3.05-11.96,1.88-17.82-.94-4.69-4.46-8.68-7.74-11.96-31.19-31.43-82.32-15.24-100.61,29.31-11.49,27.91-24.62,71.06,4.46,90.99,8.44,5.86,19.7,7.04,29.08,3.75,7.27-2.35,14.3-6.33,20.64-11.02,3.52-2.58,6.33-6.1,9.38-9.15.94-.94,3.05-3.05,3.99-2.81,1.64.24,4.69,4.93,5.86,6.33,5.16,6.8,11.96,12.43,19.23,15.71,7.04,3.28,14.78,5.63,22.51,5.16,6.57-.23,13.84-3.05,18.29-8.91,3.99-4.93,5.63-12.66,6.1-19.47.24-2.35.24-4.69-.23-7.04-.47-2.58-1.88-4.93-3.75-6.33ZM1264.9,553.76c-15.01,33.54-43.85,44.79-31.43-.7,2.11-7.74,5.63-15.71,10.79-21.34,17.82-18.76,28.14,5.16,20.64,22.04Z"/>
  <path class="cls-1" d="M1501.06,590.58c-4.69-3.75-10.32-5.39-15.71-7.5-5.16-2.35-10.32-5.16-15.01-9.15-7.27-6.1-10.55-18.76-5.86-27.91,2.11-4.22,5.63-7.74,7.5-12.19,2.11-5.39,3.05-11.96,1.88-17.82-.94-4.69-4.46-8.68-7.74-11.96-31.19-31.43-82.32-15.24-100.61,29.31-11.49,27.91-24.62,71.06,4.45,90.99,8.44,5.86,19.7,7.04,29.08,3.75,7.27-2.35,14.3-6.33,20.64-11.02,3.52-2.58,6.33-6.1,9.38-9.15.94-.94,3.05-3.05,3.99-2.81,1.64.24,4.69,4.93,5.86,6.33,5.16,6.8,11.96,12.43,19.23,15.71,7.04,3.28,14.78,5.63,22.51,5.16,6.57-.23,13.84-3.05,18.29-8.91,3.99-4.93,5.63-12.66,6.1-19.47.24-2.35.24-4.69-.23-7.04-.47-2.58-1.88-4.93-3.75-6.33ZM1426.72,553.76c-15.01,33.54-43.85,44.79-31.43-.7,2.11-7.74,5.63-15.71,10.79-21.34,17.82-18.76,28.14,5.16,20.64,22.04Z"/>
  <path class="cls-1" d="M1628.65,498.88c-.94-4.22-3.28-8.21-6.33-10.79-3.99-3.75-9.85-5.39-15.24-5.16-9.38.23-28.14,16.18-34.47,22.98-1.64,1.88-7.27,8.21-10.79,12.66,0-4.46-1.17-10.08-2.81-12.43-5.16-6.33-19.46-6.33-27.2-3.75-4.22,1.41-8.44,3.99-11.49,7.04-2.35,2.58-3.99,6.1-4.69,9.62-2.11,11.26,3.05,19.93,4.69,31.42,1.17,8.68,3.05,24.62,3.28,33.54.23,5.16-.47,29.55,0,34.71.23,2.35,1.17,4.92,2.81,6.8,10.32,12.66,36.11,8.21,40.81-6.57.94-2.81.94-6.1.94-9.15.24-21.81-14.07-51.83,5.86-68.71,8.44-7.04,13.6-8.21,24.16-11.73,4.93-1.41,19.47-2.11,23.92-5.16,3.05-2.11,5.39-5.63,6.33-9.38,1.41-5.16,1.41-10.79.23-15.95Z"/>
</svg>