<?xml version="1.0" encoding="UTF-8"?>
<svg id="Layer_1" data-name="Layer 1" xmlns="http://www.w3.org/2000/svg" viewBox="0 0 1080 1080">
  <defs>
    <style>
      .cls-1 {
        fill: #3bbca8;
      }
    </style>
  </defs>
  <path class="cls-1" d="M243.61,521.55c-.86-5.15-2-10.44-4.58-14.87-5.72-10.01-26.88-8.01-25.74,5.72,1.14,12.87,7.72,28.17,0,42.61-4,7.72-17.13,3.46-21.28-12.99-.87-3.23-1.25-6.57-1.51-9.9-.13-1.68-.22-3.36-.32-5.04-.09-1.58-.4-3.26-.31-4.83,0-.04.01-.09.02-.13.02-.07.03-.13.06-.19,3.14-5.28,15.19-11.13,15.02-15.63-.26-6.71-6.86-10.79-14.68-12.19-11.8-2.36-27.22,1.75-27.61,12.08-.17,4.5,11.87,10.35,15.02,15.63.19.31.24.7.18,1.06-2.52,16.06-3.66,15.9-6.5,23.69-3.43,9.87-24.05,10.99-22.34.55.57-3.15,5.86-21.02,5.86-24.16.14-6-1.43-11.87-7.15-14.15-14.58-5.86-12.8,9.02-13.95,21.18-2,14.44-3.57,29.74,1,43.61,1.43,4.29,3.43,8.58,6.43,11.72,2.43,2.72,5.86,4.72,9.29,5.15,3,.43,6.15.29,8.72-1,5.86-2.86,10.29-9.15,13.01-15.44,1.29-2.72,5.15-13.15,7.29-20.02,2.29,7.15,3.86,14.58,7.58,21.02,3.43,6,8.86,11.58,15.16,13.3,4.86,1.29,10.15,1.86,15.01.43,2.86-.71,5.43-2.72,7.72-4.72,4.29-4,7.58-9.29,10.15-14.73,3.57-7.43,6.01-15.58,7.58-23.88,1.29-7.86,2-16.01.86-23.88Z"/>
  <path class="cls-1" d="M284.5,504.97c-.14.29-.29.57-.43.86,0,.43-.71.29-1.14.43-19.16,3.15-29.74,23.59-31.17,41.18-.57,6.86.29,14.15,3.29,20.16,6,11.72,19.16,18.16,31.74,18.16,35.17,0,44.75-32.03,38.75-60.62-3.72-17.73-27.45-39.75-41.03-20.16ZM284.93,559.15c-19.73-3-6.29-34.17,10.01-35.6,12.01,7.72,9.44,38.46-10.01,35.6Z"/>
  <path class="cls-1" d="M367.43,504.97c-.14.29-.29.57-.43.86,0,.43-.71.29-1.14.43-19.16,3.15-29.74,23.59-31.17,41.18-.57,6.86.29,14.15,3.29,20.16,6,11.72,19.16,18.16,31.74,18.16,35.17,0,44.75-32.03,38.75-60.62-3.72-17.73-27.45-39.75-41.03-20.16ZM367.86,559.15c-19.73-3-6.29-34.17,10.01-35.6,12.01,7.72,9.44,38.46-10.01,35.6Z"/>
  <path class="cls-1" d="M485.1,493.96c-18.3-9.15-39.89-2.86-45.89,17.59-1.57,5.29-3.29,11.87-4.86,18.73-2.14-.43-4.15-.71-5.15-.71-3.72-.43-8.15,1.43-10.29,4.58-1.57,2.43-2.43,5.58-2.43,8.44,0,3.15.71,6.72,2.86,9.15,1.43,1.72,3.86,2.57,6.15,2.86.72,0,2.57.14,4.43.29-2.14,14.01-3.15,27.17-1.72,34.74.29,1.29.57,2.43,1.29,3.57,1.14,1.86,3,3.29,5,4.15,3.43,1.29,7.15,1.86,10.72,1.86,1.86,0,3.72-.43,5.43-1.14,1.72-1,3.15-2.29,4.15-4,1.29-2.14,1.57-4.86,1.72-7.29.71-9.87,1.86-20.59,3.43-31.17,2.43.43,5.15,1,6,1.14,2.86.29,14.01,1,16.87.14,2.57-.86,5-3,6.29-5.43,1-1.86,1.29-4.29,1.14-6.43,0-2.14-.14-4.15-.86-6-1.86-6-12.72-5.58-18.87-5.43-1.14,0-4.58,0-7.29-.14.29-2.29.71-4.29,1-6.43,1.86-11.87,8.86-5.15,18.16-3.57,4.15.86,8.44-1,10.58-4.43,2.72-4.15,3.72-13.44,1.29-17.59-2-3.43-5.72-5.72-9.15-7.43Z"/>
  <path class="cls-1" d="M592.91,563.59c-2.86-2.29-6.29-3.29-9.58-4.58-3.15-1.43-6.29-3.15-9.15-5.58-4.43-3.72-6.43-11.44-3.57-17.01,1.29-2.57,3.43-4.72,4.58-7.43,1.29-3.29,1.86-7.29,1.14-10.87-.57-2.86-2.72-5.29-4.72-7.29-19.02-19.16-50.18-9.29-61.34,17.87-7.01,17.01-15.01,43.32,2.72,55.47,5.15,3.58,12.01,4.29,17.73,2.29,4.43-1.43,8.72-3.86,12.58-6.72,2.14-1.57,3.86-3.72,5.72-5.58.57-.57,1.86-1.86,2.43-1.72,1,.14,2.86,3,3.58,3.86,3.15,4.15,7.29,7.58,11.72,9.58,4.29,2,9.01,3.43,13.73,3.15,4-.14,8.44-1.86,11.15-5.43,2.43-3,3.43-7.72,3.72-11.87.14-1.43.14-2.86-.14-4.29-.29-1.57-1.14-3-2.29-3.86ZM547.59,541.14c-9.15,20.45-26.74,27.31-19.16-.43,1.29-4.72,3.43-9.58,6.58-13.01,10.87-11.44,17.16,3.15,12.58,13.44Z"/>
  <path class="cls-1" d="M666.55,508.68c-.43-3.29-1-6.58-1.57-9.72-.57-4.86-1.57-10.01-4.58-14.01-4-5.29-14.3-4.86-20.45-2.29-2.72,1.14-5.29,2.86-6.86,5.29-1.86,3.15-2,7.15-1.43,10.72,2,12.58,8.58,24.31,10.15,37.03-4.15-2-11.29-3.43-14.3-3.57-22.59-.86-33.74,23.73-23.16,42.18,1.72,2.72,3.58,5.29,6.01,7.58,3.86,3.57,8.58,6.29,13.44,8.01,4,1.43,8.29,1.86,12.44,1.86,5.58,0,11.29-.86,16.58-2.57,17.16-5.15,19.44-23.88,19.02-39.32-.57-13.73-3-27.45-5.29-41.18ZM628.8,564.16c-3.43-3-2-9.29,2.29-10.72,5.86-2,12.87,1.29,13.3,7.29.86,8.72-10.87,8.01-15.58,3.43Z"/>
  <path class="cls-1" d="M771.21,563.59c-2.86-2.29-6.29-3.29-9.58-4.58-3.15-1.43-6.29-3.15-9.15-5.58-4.43-3.72-6.43-11.44-3.57-17.01,1.29-2.57,3.43-4.72,4.58-7.43,1.29-3.29,1.86-7.29,1.14-10.87-.57-2.86-2.72-5.29-4.72-7.29-19.02-19.16-50.18-9.29-61.34,17.87-7,17.01-15.01,43.32,2.72,55.47,5.15,3.58,12.01,4.29,17.73,2.29,4.43-1.43,8.72-3.86,12.58-6.72,2.14-1.57,3.86-3.72,5.72-5.58.57-.57,1.86-1.86,2.43-1.72,1,.14,2.86,3,3.57,3.86,3.15,4.15,7.29,7.58,11.72,9.58,4.29,2,9.01,3.43,13.73,3.15,4-.14,8.44-1.86,11.15-5.43,2.43-3,3.43-7.72,3.72-11.87.14-1.43.14-2.86-.14-4.29-.29-1.57-1.14-3-2.29-3.86ZM725.88,541.14c-9.15,20.45-26.74,27.31-19.16-.43,1.29-4.72,3.43-9.58,6.58-13.01,10.87-11.44,17.16,3.15,12.58,13.44Z"/>
  <path class="cls-1" d="M869.86,563.59c-2.86-2.29-6.29-3.29-9.58-4.58-3.15-1.43-6.29-3.15-9.15-5.58-4.43-3.72-6.43-11.44-3.57-17.01,1.29-2.57,3.43-4.72,4.58-7.43,1.29-3.29,1.86-7.29,1.14-10.87-.57-2.86-2.72-5.29-4.72-7.29-19.02-19.16-50.18-9.29-61.34,17.87-7.01,17.01-15.01,43.32,2.72,55.47,5.15,3.58,12.01,4.29,17.73,2.29,4.43-1.43,8.72-3.86,12.58-6.72,2.14-1.57,3.86-3.72,5.72-5.58.57-.57,1.86-1.86,2.43-1.72,1,.14,2.86,3,3.58,3.86,3.15,4.15,7.29,7.58,11.72,9.58,4.29,2,9.01,3.43,13.73,3.15,4-.14,8.44-1.86,11.15-5.43,2.43-3,3.43-7.72,3.72-11.87.14-1.43.14-2.86-.14-4.29-.29-1.57-1.14-3-2.29-3.86ZM824.54,541.14c-9.15,20.45-26.74,27.31-19.16-.43,1.29-4.72,3.43-9.58,6.58-13.01,10.87-11.44,17.16,3.15,12.58,13.44Z"/>
  <path class="cls-1" d="M947.65,507.68c-.57-2.57-2-5-3.86-6.58-2.43-2.29-6-3.29-9.29-3.15-5.72.14-17.16,9.87-21.02,14.01-1,1.14-4.43,5-6.58,7.72,0-2.72-.71-6.15-1.72-7.58-3.15-3.86-11.87-3.86-16.58-2.29-2.57.86-5.15,2.43-7.01,4.29-1.43,1.57-2.43,3.72-2.86,5.86-1.29,6.86,1.86,12.15,2.86,19.16.71,5.29,1.86,15.01,2,20.45.14,3.14-.29,18.01,0,21.16.14,1.43.71,3,1.72,4.15,6.29,7.72,22.02,5,24.88-4,.57-1.72.57-3.72.57-5.58.14-13.3-8.58-31.6,3.57-41.89,5.15-4.29,8.29-5,14.73-7.15,3-.86,11.87-1.29,14.58-3.15,1.86-1.29,3.29-3.43,3.86-5.72.86-3.15.86-6.58.14-9.72Z"/>
</svg>